<mxfile host="app.diagrams.net" modified="2021-09-09T13:30:59.183Z" agent="5.0 (Windows NT 10.0; Win64; x64) AppleWebKit/537.36 (KHTML, like Gecko) Chrome/93.0.4577.63 Safari/537.36 Edg/93.0.961.38" etag="FNqcc8u0Yl_iflPNrd3_" version="15.1.2" type="github">
  <diagram id="C5RBs43oDa-KdzZeNtuy" name="Page-1">
    <mxGraphModel dx="9838" dy="5118" grid="1" gridSize="10" guides="1" tooltips="1" connect="1" arrows="1" fold="1" page="1" pageScale="1" pageWidth="1169" pageHeight="827" math="0" shadow="0">
      <root>
        <mxCell id="WIyWlLk6GJQsqaUBKTNV-0" />
        <mxCell id="WIyWlLk6GJQsqaUBKTNV-1" parent="WIyWlLk6GJQsqaUBKTNV-0" />
        <mxCell id="bV0bHOmEOioke7Z_R2ua-2" value="Zelda" style="swimlane;fontStyle=1;align=center;verticalAlign=top;childLayout=stackLayout;horizontal=1;startSize=26;horizontalStack=0;resizeParent=1;resizeParentMax=0;resizeLast=0;collapsible=1;marginBottom=0;" parent="WIyWlLk6GJQsqaUBKTNV-1" vertex="1">
          <mxGeometry x="437.5" y="480" width="415" height="330" as="geometry" />
        </mxCell>
        <mxCell id="bV0bHOmEOioke7Z_R2ua-3" value="+ listen: boolean&#xa;- root: Pane&#xa;- specialTextField: TextField&#xa;- bowTextField: TextField&#xa;- loginButton: Button&#xa;- loginTextField: TextField&#xa;- ranking: TableView&lt;Record&gt;&#xa;- builder: Builder&#xa;- gameModel: GameModel&#xa;- gameView: GameView&#xa;- dbManager: DBManager&#xa;- keyAssociation: KeyAssociation&#xa;+ records: ObservableList&lt;Record&gt;&#xa;+ tileGroup: Group&#xa;- t: turnHandler" style="text;strokeColor=none;fillColor=none;align=left;verticalAlign=top;spacingLeft=4;spacingRight=4;overflow=hidden;rotatable=0;points=[[0,0.5],[1,0.5]];portConstraint=eastwest;" parent="bV0bHOmEOioke7Z_R2ua-2" vertex="1">
          <mxGeometry y="26" width="415" height="214" as="geometry" />
        </mxCell>
        <mxCell id="bV0bHOmEOioke7Z_R2ua-4" value="" style="line;strokeWidth=1;fillColor=none;align=left;verticalAlign=middle;spacingTop=-1;spacingLeft=3;spacingRight=3;rotatable=0;labelPosition=right;points=[];portConstraint=eastwest;" parent="bV0bHOmEOioke7Z_R2ua-2" vertex="1">
          <mxGeometry y="240" width="415" height="8" as="geometry" />
        </mxCell>
        <mxCell id="bV0bHOmEOioke7Z_R2ua-5" value="+ start(primaryStage : Stage)&#xa;- loadSettings()&#xa;- playerInput(key : KeyCode)&#xa;+ endGame()&#xa;+ rebuildFromCache(cacheData :CacheData)&#xa;" style="text;strokeColor=none;fillColor=none;align=left;verticalAlign=top;spacingLeft=4;spacingRight=4;overflow=hidden;rotatable=0;points=[[0,0.5],[1,0.5]];portConstraint=eastwest;" parent="bV0bHOmEOioke7Z_R2ua-2" vertex="1">
          <mxGeometry y="248" width="415" height="82" as="geometry" />
        </mxCell>
        <mxCell id="bV0bHOmEOioke7Z_R2ua-7" value="ReaderSettingsXML" style="swimlane;fontStyle=1;align=center;verticalAlign=top;childLayout=stackLayout;horizontal=1;startSize=26;horizontalStack=0;resizeParent=1;resizeParentMax=0;resizeLast=0;collapsible=1;marginBottom=0;" parent="WIyWlLk6GJQsqaUBKTNV-1" vertex="1">
          <mxGeometry x="1480" y="420" width="280" height="170" as="geometry" />
        </mxCell>
        <mxCell id="bV0bHOmEOioke7Z_R2ua-8" value="-filePathXml: String&#xa;-filePathXsd: String&#xa;+defaultSettings : Settings" style="text;strokeColor=none;fillColor=none;align=left;verticalAlign=top;spacingLeft=4;spacingRight=4;overflow=hidden;rotatable=0;points=[[0,0.5],[1,0.5]];portConstraint=eastwest;" parent="bV0bHOmEOioke7Z_R2ua-7" vertex="1">
          <mxGeometry y="26" width="280" height="64" as="geometry" />
        </mxCell>
        <mxCell id="bV0bHOmEOioke7Z_R2ua-9" value="" style="line;strokeWidth=1;fillColor=none;align=left;verticalAlign=middle;spacingTop=-1;spacingLeft=3;spacingRight=3;rotatable=0;labelPosition=right;points=[];portConstraint=eastwest;" parent="bV0bHOmEOioke7Z_R2ua-7" vertex="1">
          <mxGeometry y="90" width="280" height="8" as="geometry" />
        </mxCell>
        <mxCell id="bV0bHOmEOioke7Z_R2ua-10" value="+readSettings() : Settings&#xa;-writeDefaultSettings()&#xa;-checkSettings(settings : String) : Boolean&#xa;-deserializeXmlSettings(settings : String) : Settings&#xa;" style="text;strokeColor=none;fillColor=none;align=left;verticalAlign=top;spacingLeft=4;spacingRight=4;overflow=hidden;rotatable=0;points=[[0,0.5],[1,0.5]];portConstraint=eastwest;" parent="bV0bHOmEOioke7Z_R2ua-7" vertex="1">
          <mxGeometry y="98" width="280" height="72" as="geometry" />
        </mxCell>
        <mxCell id="bV0bHOmEOioke7Z_R2ua-11" value="Use" style="endArrow=open;endSize=12;dashed=1;html=1;exitX=1.009;exitY=-0.006;exitDx=0;exitDy=0;exitPerimeter=0;entryX=0;entryY=0.5;entryDx=0;entryDy=0;" parent="WIyWlLk6GJQsqaUBKTNV-1" source="bV0bHOmEOioke7Z_R2ua-10" target="L1kakF1YF15P_5vZSAZn-9" edge="1">
          <mxGeometry width="160" relative="1" as="geometry">
            <mxPoint x="1982" y="497" as="sourcePoint" />
            <mxPoint x="2052" y="516" as="targetPoint" />
          </mxGeometry>
        </mxCell>
        <mxCell id="bV0bHOmEOioke7Z_R2ua-23" value="EventLoggerXML" style="swimlane;fontStyle=1;align=center;verticalAlign=top;childLayout=stackLayout;horizontal=1;startSize=26;horizontalStack=0;resizeParent=1;resizeParentMax=0;resizeLast=0;collapsible=1;marginBottom=0;" parent="WIyWlLk6GJQsqaUBKTNV-1" vertex="1">
          <mxGeometry x="1250" y="127" width="350" height="170" as="geometry" />
        </mxCell>
        <mxCell id="bV0bHOmEOioke7Z_R2ua-24" value="- logServerAddress : InetSocketAddress&#xa;- filePathXsd : String&#xa;+ eventDescription : String" style="text;strokeColor=none;fillColor=none;align=left;verticalAlign=top;spacingLeft=4;spacingRight=4;overflow=hidden;rotatable=0;points=[[0,0.5],[1,0.5]];portConstraint=eastwest;" parent="bV0bHOmEOioke7Z_R2ua-23" vertex="1">
          <mxGeometry y="26" width="350" height="54" as="geometry" />
        </mxCell>
        <mxCell id="bV0bHOmEOioke7Z_R2ua-25" value="" style="line;strokeWidth=1;fillColor=none;align=left;verticalAlign=middle;spacingTop=-1;spacingLeft=3;spacingRight=3;rotatable=0;labelPosition=right;points=[];portConstraint=eastwest;" parent="bV0bHOmEOioke7Z_R2ua-23" vertex="1">
          <mxGeometry y="80" width="350" height="8" as="geometry" />
        </mxCell>
        <mxCell id="bV0bHOmEOioke7Z_R2ua-26" value="+setServerLogAddress(address : String, port : int)&#xa;+recordEvent(eventDescription : String)&#xa;-serializeEventLog(eventLog : EventLogXML) : String&#xa;-validSerializedEventLog(serializedEventLog : String)Â : Boolean&#xa;-sendSerializedEventLog(serializedEventLog : String)" style="text;strokeColor=none;fillColor=none;align=left;verticalAlign=top;spacingLeft=4;spacingRight=4;overflow=hidden;rotatable=0;points=[[0,0.5],[1,0.5]];portConstraint=eastwest;" parent="bV0bHOmEOioke7Z_R2ua-23" vertex="1">
          <mxGeometry y="88" width="350" height="82" as="geometry" />
        </mxCell>
        <mxCell id="bV0bHOmEOioke7Z_R2ua-27" value="ServerLog" style="swimlane;fontStyle=1;align=center;verticalAlign=top;childLayout=stackLayout;horizontal=1;startSize=26;horizontalStack=0;resizeParent=1;resizeParentMax=0;resizeLast=0;collapsible=1;marginBottom=0;" parent="WIyWlLk6GJQsqaUBKTNV-1" vertex="1">
          <mxGeometry x="1732" y="122" width="300" height="180" as="geometry" />
        </mxCell>
        <mxCell id="bV0bHOmEOioke7Z_R2ua-28" value="-xmlLogPath : String&#xa;-entryLogXsdPath: String&#xa;-listeningPort : SocketAddress" style="text;strokeColor=none;fillColor=none;align=left;verticalAlign=top;spacingLeft=4;spacingRight=4;overflow=hidden;rotatable=0;points=[[0,0.5],[1,0.5]];portConstraint=eastwest;" parent="bV0bHOmEOioke7Z_R2ua-27" vertex="1">
          <mxGeometry y="26" width="300" height="54" as="geometry" />
        </mxCell>
        <mxCell id="bV0bHOmEOioke7Z_R2ua-29" value="" style="line;strokeWidth=1;fillColor=none;align=left;verticalAlign=middle;spacingTop=-1;spacingLeft=3;spacingRight=3;rotatable=0;labelPosition=right;points=[];portConstraint=eastwest;" parent="bV0bHOmEOioke7Z_R2ua-27" vertex="1">
          <mxGeometry y="80" width="300" height="8" as="geometry" />
        </mxCell>
        <mxCell id="bV0bHOmEOioke7Z_R2ua-30" value="+main(String[] args)&#xa;-cycleWaitingLog(listeningSocket : ServerSocket)&#xa;-receiveLog(applicationConnection : Socket) : String&#xa;-validEventLog(logEventReceived : String) : Boolean&#xa;-recordLogOnFile(logEventReceived : String)" style="text;strokeColor=none;fillColor=none;align=left;verticalAlign=top;spacingLeft=4;spacingRight=4;overflow=hidden;rotatable=0;points=[[0,0.5],[1,0.5]];portConstraint=eastwest;" parent="bV0bHOmEOioke7Z_R2ua-27" vertex="1">
          <mxGeometry y="88" width="300" height="92" as="geometry" />
        </mxCell>
        <mxCell id="bV0bHOmEOioke7Z_R2ua-33" value="" style="endArrow=none;html=1;entryX=0;entryY=0.5;entryDx=0;entryDy=0;exitX=1;exitY=0.5;exitDx=0;exitDy=0;" parent="WIyWlLk6GJQsqaUBKTNV-1" source="bV0bHOmEOioke7Z_R2ua-26" target="bV0bHOmEOioke7Z_R2ua-30" edge="1">
          <mxGeometry width="50" height="50" relative="1" as="geometry">
            <mxPoint x="1100" y="230" as="sourcePoint" />
            <mxPoint x="1230" y="230" as="targetPoint" />
          </mxGeometry>
        </mxCell>
        <mxCell id="bV0bHOmEOioke7Z_R2ua-34" value="EventLogXML" style="swimlane;fontStyle=1;align=center;verticalAlign=top;childLayout=stackLayout;horizontal=1;startSize=26;horizontalStack=0;resizeParent=1;resizeParentMax=0;resizeLast=0;collapsible=1;marginBottom=0;" parent="WIyWlLk6GJQsqaUBKTNV-1" vertex="1">
          <mxGeometry x="1316" y="-163" width="230" height="114" as="geometry" />
        </mxCell>
        <mxCell id="bV0bHOmEOioke7Z_R2ua-35" value="+IPAddress : String&#xa;-eventTimestamp : String&#xa;- eventDescription : String" style="text;strokeColor=none;fillColor=none;align=left;verticalAlign=top;spacingLeft=4;spacingRight=4;overflow=hidden;rotatable=0;points=[[0,0.5],[1,0.5]];portConstraint=eastwest;" parent="bV0bHOmEOioke7Z_R2ua-34" vertex="1">
          <mxGeometry y="26" width="230" height="54" as="geometry" />
        </mxCell>
        <mxCell id="bV0bHOmEOioke7Z_R2ua-36" value="" style="line;strokeWidth=1;fillColor=none;align=left;verticalAlign=middle;spacingTop=-1;spacingLeft=3;spacingRight=3;rotatable=0;labelPosition=right;points=[];portConstraint=eastwest;" parent="bV0bHOmEOioke7Z_R2ua-34" vertex="1">
          <mxGeometry y="80" width="230" height="8" as="geometry" />
        </mxCell>
        <mxCell id="bV0bHOmEOioke7Z_R2ua-37" value="+EventLogXML(eventDescription : String)" style="text;strokeColor=none;fillColor=none;align=left;verticalAlign=top;spacingLeft=4;spacingRight=4;overflow=hidden;rotatable=0;points=[[0,0.5],[1,0.5]];portConstraint=eastwest;" parent="bV0bHOmEOioke7Z_R2ua-34" vertex="1">
          <mxGeometry y="88" width="230" height="26" as="geometry" />
        </mxCell>
        <mxCell id="bV0bHOmEOioke7Z_R2ua-38" value="Use" style="endArrow=open;endSize=12;dashed=1;html=1;exitX=0.5;exitY=0;exitDx=0;exitDy=0;entryX=0.469;entryY=0.962;entryDx=0;entryDy=0;entryPerimeter=0;" parent="WIyWlLk6GJQsqaUBKTNV-1" source="bV0bHOmEOioke7Z_R2ua-23" target="bV0bHOmEOioke7Z_R2ua-37" edge="1">
          <mxGeometry width="160" relative="1" as="geometry">
            <mxPoint x="1020" y="47" as="sourcePoint" />
            <mxPoint x="1180" y="47" as="targetPoint" />
          </mxGeometry>
        </mxCell>
        <mxCell id="bV0bHOmEOioke7Z_R2ua-39" value="Â«interfaceÂ»&lt;br&gt;&lt;b&gt;Serializable&lt;/b&gt;" style="html=1;" parent="WIyWlLk6GJQsqaUBKTNV-1" vertex="1">
          <mxGeometry x="2260" y="-135" width="110" height="50" as="geometry" />
        </mxCell>
        <mxCell id="Ob0sJD3edlCVlVhSrMj9-4" value="GameModel" style="swimlane;fontStyle=1;align=center;verticalAlign=top;childLayout=stackLayout;horizontal=1;startSize=26;horizontalStack=0;resizeParent=1;resizeParentMax=0;resizeLast=0;collapsible=1;marginBottom=0;" parent="WIyWlLk6GJQsqaUBKTNV-1" vertex="1">
          <mxGeometry x="-250" y="-790" width="450" height="720" as="geometry" />
        </mxCell>
        <mxCell id="Ob0sJD3edlCVlVhSrMj9-5" value="- gameView: GameView&#xa;- user: String&#xa;- points: int&#xa;- board: GameTile[][]&#xa;- link: GameCharacter&#xa;- enemies: ArrayList&lt;GameEnemy&gt;&#xa;- waveMagnitude: int&#xa;- lives: int&#xa;- coolDown: int&#xa;- readySpecial: boolean&#xa;- arrows: int&#xa;- endend: boolean" style="text;strokeColor=none;fillColor=none;align=left;verticalAlign=top;spacingLeft=4;spacingRight=4;overflow=hidden;rotatable=0;points=[[0,0.5],[1,0.5]];portConstraint=eastwest;" parent="Ob0sJD3edlCVlVhSrMj9-4" vertex="1">
          <mxGeometry y="26" width="450" height="174" as="geometry" />
        </mxCell>
        <mxCell id="Ob0sJD3edlCVlVhSrMj9-6" value="" style="line;strokeWidth=1;fillColor=none;align=left;verticalAlign=middle;spacingTop=-1;spacingLeft=3;spacingRight=3;rotatable=0;labelPosition=right;points=[];portConstraint=eastwest;" parent="Ob0sJD3edlCVlVhSrMj9-4" vertex="1">
          <mxGeometry y="200" width="450" height="8" as="geometry" />
        </mxCell>
        <mxCell id="Ob0sJD3edlCVlVhSrMj9-7" value="+Â GameModel(gameView : GameView)&#xa;- createContent() //Da cambiare&#xa;+ setUser(user : String)&#xa;+ getUser() : String&#xa;+ setPoints(points : int)&#xa;+ getPoints() : int&#xa;+ getWaveMagnitude() : int&#xa;+ start()&#xa;+ spawn&#xa;+ spawnWave()&#xa;+ spawnCharacter(x : int, y : int, direction : Command, gameModel : GameModel)&#xa;+ spawnEnemy(x : int, y : int, direction : Command, gameModel : GameModel)&#xa;+ randomSpawnEnemy(gameModel : GameModel)&#xa;+ getBoard() : GameTile[][]&#xa;+ getTile(x : int, y : int) : GameTile&#xa;+ getCharacter() : GameCharacter&#xa;+ getEnemies() : ArrayList&lt;GameEnemy&gt;&#xa;+ executePlayerCommand(command : Command)&#xa;+ resetCoolDown()&#xa;+ updateCoolDown()&#xa;+ getReadySpecial() : boolean&#xa;+ getCoolDown() : int&#xa;+ resetArrows()&#xa;+ updateArrows()&#xa;+ getArrows() : int&#xa;+ resetLives()&#xa;+ getLives() : int&#xa;+ combat(attacker : GameCharacter, attackedTile : GameTile)&#xa;+ kill(attacked : GameEnemy)&#xa;+ attachedCharacter()&#xa;- clearBoard()&#xa;+ clear()&#xa;+ endGame()&#xa;+ isEnded()&#xa;+ firstEncounterOnAxis(x : int, y : int, direction : Command) : GameTile&#xa;+ rebuildFromCache(cacheData : CacheData)" style="text;strokeColor=none;fillColor=none;align=left;verticalAlign=top;spacingLeft=4;spacingRight=4;overflow=hidden;rotatable=0;points=[[0,0.5],[1,0.5]];portConstraint=eastwest;" parent="Ob0sJD3edlCVlVhSrMj9-4" vertex="1">
          <mxGeometry y="208" width="450" height="512" as="geometry" />
        </mxCell>
        <mxCell id="Ob0sJD3edlCVlVhSrMj9-8" value="GameView" style="swimlane;fontStyle=1;align=center;verticalAlign=top;childLayout=stackLayout;horizontal=1;startSize=26;horizontalStack=0;resizeParent=1;resizeParentMax=0;resizeLast=0;collapsible=1;marginBottom=0;" parent="WIyWlLk6GJQsqaUBKTNV-1" vertex="1">
          <mxGeometry x="-1200" y="-599" width="480" height="590" as="geometry" />
        </mxCell>
        <mxCell id="Ob0sJD3edlCVlVhSrMj9-9" value="- board :Â GraficTile[][]&#xa;- root: Pane&#xa;- boardWrapper: Pane&#xa;- hearts: ArrayList&lt;ImageView&gt;&#xa;- specialTextField: TextField&#xa;- bowTextField: TextField&#xa;+ endedAnimationCharacter: boolean&#xa;+ endedAnimationEnemies: boolean&#xa;+ endedAnimationCurrentEnemy: boolean" style="text;strokeColor=none;fillColor=none;align=left;verticalAlign=top;spacingLeft=4;spacingRight=4;overflow=hidden;rotatable=0;points=[[0,0.5],[1,0.5]];portConstraint=eastwest;" parent="Ob0sJD3edlCVlVhSrMj9-8" vertex="1">
          <mxGeometry y="26" width="480" height="134" as="geometry" />
        </mxCell>
        <mxCell id="Ob0sJD3edlCVlVhSrMj9-10" value="" style="line;strokeWidth=1;fillColor=none;align=left;verticalAlign=middle;spacingTop=-1;spacingLeft=3;spacingRight=3;rotatable=0;labelPosition=right;points=[];portConstraint=eastwest;" parent="Ob0sJD3edlCVlVhSrMj9-8" vertex="1">
          <mxGeometry y="160" width="480" height="8" as="geometry" />
        </mxCell>
        <mxCell id="Ob0sJD3edlCVlVhSrMj9-11" value="+ GameView()&#xa;+ createContent(gameModel : GameModel): Parent&#xa;- createBoard(gameModel : GameModel)&#xa;+ setHearts(hearts : ArrayList&lt;ImageView&gt;)&#xa;+Â setSpecialTextField(specialTextField : TextField)&#xa;+ setBowTextField(bowTextField : TextField)&#xa;+ readySpecial()&#xa;+ notReadySpecial()&#xa;+ updateCoolDown()&#xa;+ removeCoolDown()&#xa;+ updateLives()&#xa;+ resetLives()&#xa;+ readyBow()&#xa;+ notReadyBow()&#xa;+ updateArrows()&#xa;+ removeArrows()&#xa;+ showCharacter(link : GameCharacter)&#xa;+ showEnemy(enemy : GameEnemy)&#xa;+ updateBoard(gameModel : GameModel)&#xa;- clearBoard()&#xa;+ getTile(x : int, y : int) : GraficTile&#xa;+ moveAnimation(link : GameCharacter, gameModel : GameModel)&#xa;+ moveAnimation(enemy : GameEnemy, gameModel : GameModel)&#xa;+ attackAnimation(link : GameCharacter, gameModel : GameModel, hasHit : boolean)&#xa;+Â attackAnimation(enemy : GameEnemy, gameModel : GameModel)&#xa;+Â specialAnimation(link : GameCharacter, gameModel : GameModel, boolean hasHit)&#xa;+Â bowAnimation(link : GameCharacter, gameModel : GameModel, hasHit : boolean)&#xa;+Â killAnimation(gameTile : GameTile, gameModel : GameModel)&#xa;+ endGame()" style="text;strokeColor=none;fillColor=none;align=left;verticalAlign=top;spacingLeft=4;spacingRight=4;overflow=hidden;rotatable=0;points=[[0,0.5],[1,0.5]];portConstraint=eastwest;" parent="Ob0sJD3edlCVlVhSrMj9-8" vertex="1">
          <mxGeometry y="168" width="480" height="422" as="geometry" />
        </mxCell>
        <mxCell id="Ob0sJD3edlCVlVhSrMj9-12" value="Builder" style="swimlane;fontStyle=1;align=center;verticalAlign=top;childLayout=stackLayout;horizontal=1;startSize=26;horizontalStack=0;resizeParent=1;resizeParentMax=0;resizeLast=0;collapsible=1;marginBottom=0;" parent="WIyWlLk6GJQsqaUBKTNV-1" vertex="1">
          <mxGeometry x="910" y="976" width="410" height="300" as="geometry" />
        </mxCell>
        <mxCell id="Ob0sJD3edlCVlVhSrMj9-13" value="- root : Pane&#xa;- hearts : ArrayList&lt;ImageView&gt;&#xa;- keyCText : TextField //da cambiare&#xa;- keyXTex : TextField //da cambiare&#xa;- loginTextField : TextField&#xa;- loginButton : Button&#xa;- ranking : TableView&lt;Record&gt;" style="text;strokeColor=none;fillColor=none;align=left;verticalAlign=top;spacingLeft=4;spacingRight=4;overflow=hidden;rotatable=0;points=[[0,0.5],[1,0.5]];portConstraint=eastwest;" parent="Ob0sJD3edlCVlVhSrMj9-12" vertex="1">
          <mxGeometry y="26" width="410" height="114" as="geometry" />
        </mxCell>
        <mxCell id="Ob0sJD3edlCVlVhSrMj9-14" value="" style="line;strokeWidth=1;fillColor=none;align=left;verticalAlign=middle;spacingTop=-1;spacingLeft=3;spacingRight=3;rotatable=0;labelPosition=right;points=[];portConstraint=eastwest;" parent="Ob0sJD3edlCVlVhSrMj9-12" vertex="1">
          <mxGeometry y="140" width="410" height="8" as="geometry" />
        </mxCell>
        <mxCell id="Ob0sJD3edlCVlVhSrMj9-15" value="+ getSpecialTextField() : TextField&#xa;+ getBowTextField() : TextField&#xa;+ getLoginButton() : Button&#xa;+ getLoginTextField() : TextField&#xa;+ getRanking() : TableView&lt;Record&gt;&#xa;+ createContent(gameView : GameView) : Parent&#xa;- createCharacterStat()&#xa;- createKeyTutorial()&#xa;- createLogin()&#xa;- createRanking()" style="text;strokeColor=none;fillColor=none;align=left;verticalAlign=top;spacingLeft=4;spacingRight=4;overflow=hidden;rotatable=0;points=[[0,0.5],[1,0.5]];portConstraint=eastwest;" parent="Ob0sJD3edlCVlVhSrMj9-12" vertex="1">
          <mxGeometry y="148" width="410" height="152" as="geometry" />
        </mxCell>
        <mxCell id="Ob0sJD3edlCVlVhSrMj9-16" value="TurnHandler" style="swimlane;fontStyle=1;align=center;verticalAlign=top;childLayout=stackLayout;horizontal=1;startSize=26;horizontalStack=0;resizeParent=1;resizeParentMax=0;resizeLast=0;collapsible=1;marginBottom=0;" parent="WIyWlLk6GJQsqaUBKTNV-1" vertex="1">
          <mxGeometry x="370" y="77" width="580" height="260" as="geometry" />
        </mxCell>
        <mxCell id="Ob0sJD3edlCVlVhSrMj9-17" value="- characterTurn: boolean&#xa;- enemyIndex: int&#xa;- inputCounter: int&#xa;- enemyTurnCounter: int&#xa;- zelda: Zelda&#xa;- gameModel: GameModel&#xa;- gameView: GameView" style="text;strokeColor=none;fillColor=none;align=left;verticalAlign=top;spacingLeft=4;spacingRight=4;overflow=hidden;rotatable=0;points=[[0,0.5],[1,0.5]];portConstraint=eastwest;" parent="Ob0sJD3edlCVlVhSrMj9-16" vertex="1">
          <mxGeometry y="26" width="580" height="114" as="geometry" />
        </mxCell>
        <mxCell id="Ob0sJD3edlCVlVhSrMj9-18" value="" style="line;strokeWidth=1;fillColor=none;align=left;verticalAlign=middle;spacingTop=-1;spacingLeft=3;spacingRight=3;rotatable=0;labelPosition=right;points=[];portConstraint=eastwest;" parent="Ob0sJD3edlCVlVhSrMj9-16" vertex="1">
          <mxGeometry y="140" width="580" height="8" as="geometry" />
        </mxCell>
        <mxCell id="Ob0sJD3edlCVlVhSrMj9-19" value="+ TurnHandler(gameModel : GameModel, gameView : GameView, zelda : Zelda)&#xa;+Â TurnHandler(gameModel : GameModel, gameView : GameView, zelda : Zelda, cacheData : CacheData)&#xa;+Â getCharacterTurn() : boolean&#xa;+Â getEnemyIndex() : int&#xa;+Â getInputCounter() : int&#xa;+Â getEnemyTurnCounter : int&#xa;+ run()" style="text;strokeColor=none;fillColor=none;align=left;verticalAlign=top;spacingLeft=4;spacingRight=4;overflow=hidden;rotatable=0;points=[[0,0.5],[1,0.5]];portConstraint=eastwest;" parent="Ob0sJD3edlCVlVhSrMj9-16" vertex="1">
          <mxGeometry y="148" width="580" height="112" as="geometry" />
        </mxCell>
        <mxCell id="Ob0sJD3edlCVlVhSrMj9-20" value="&lt;&lt;Enumeration&gt;&gt;&#xa;Command" style="swimlane;fontStyle=0;childLayout=stackLayout;horizontal=1;startSize=31;fillColor=none;horizontalStack=0;resizeParent=1;resizeParentMax=0;resizeLast=0;collapsible=1;marginBottom=0;" parent="WIyWlLk6GJQsqaUBKTNV-1" vertex="1">
          <mxGeometry x="-1309" y="-1280" width="140" height="140" as="geometry" />
        </mxCell>
        <mxCell id="Ob0sJD3edlCVlVhSrMj9-21" value="Right&#xa;Left&#xa;Up&#xa;Down&#xa;Sword&#xa;Special&#xa;Bow" style="text;strokeColor=none;fillColor=none;align=left;verticalAlign=top;spacingLeft=4;spacingRight=4;overflow=hidden;rotatable=0;points=[[0,0.5],[1,0.5]];portConstraint=eastwest;" parent="Ob0sJD3edlCVlVhSrMj9-20" vertex="1">
          <mxGeometry y="31" width="140" height="109" as="geometry" />
        </mxCell>
        <mxCell id="Ob0sJD3edlCVlVhSrMj9-24" value="DBManager" style="swimlane;fontStyle=1;align=center;verticalAlign=top;childLayout=stackLayout;horizontal=1;startSize=26;horizontalStack=0;resizeParent=1;resizeParentMax=0;resizeLast=0;collapsible=1;marginBottom=0;" parent="WIyWlLk6GJQsqaUBKTNV-1" vertex="1">
          <mxGeometry x="-25" y="919" width="455" height="180" as="geometry" />
        </mxCell>
        <mxCell id="Ob0sJD3edlCVlVhSrMj9-25" value="- dbAddress: String&#xa;- port: int&#xa;- username: String&#xa;- password: String" style="text;strokeColor=none;fillColor=none;align=left;verticalAlign=top;spacingLeft=4;spacingRight=4;overflow=hidden;rotatable=0;points=[[0,0.5],[1,0.5]];portConstraint=eastwest;" parent="Ob0sJD3edlCVlVhSrMj9-24" vertex="1">
          <mxGeometry y="26" width="455" height="64" as="geometry" />
        </mxCell>
        <mxCell id="Ob0sJD3edlCVlVhSrMj9-26" value="" style="line;strokeWidth=1;fillColor=none;align=left;verticalAlign=middle;spacingTop=-1;spacingLeft=3;spacingRight=3;rotatable=0;labelPosition=right;points=[];portConstraint=eastwest;" parent="Ob0sJD3edlCVlVhSrMj9-24" vertex="1">
          <mxGeometry y="90" width="455" height="8" as="geometry" />
        </mxCell>
        <mxCell id="Ob0sJD3edlCVlVhSrMj9-27" value="+ DBManager(dbAddress : String, port : int, username : String, password : String)&#xa;+ loadDeafaultRecords()&#xa;+ loadRecordsDB()&#xa;+Â registerRecordDB(record : Record)&#xa;+Â deleteRecordDB(record : Record)" style="text;strokeColor=none;fillColor=none;align=left;verticalAlign=top;spacingLeft=4;spacingRight=4;overflow=hidden;rotatable=0;points=[[0,0.5],[1,0.5]];portConstraint=eastwest;" parent="Ob0sJD3edlCVlVhSrMj9-24" vertex="1">
          <mxGeometry y="98" width="455" height="82" as="geometry" />
        </mxCell>
        <mxCell id="Ob0sJD3edlCVlVhSrMj9-32" value="GameCharacter" style="swimlane;fontStyle=1;align=center;verticalAlign=top;childLayout=stackLayout;horizontal=1;startSize=26;horizontalStack=0;resizeParent=1;resizeParentMax=0;resizeLast=0;collapsible=1;marginBottom=0;" parent="WIyWlLk6GJQsqaUBKTNV-1" vertex="1">
          <mxGeometry x="-245" y="-1322" width="440" height="260" as="geometry" />
        </mxCell>
        <mxCell id="Ob0sJD3edlCVlVhSrMj9-33" value="- x: int&#xa;- y: int&#xa;- direction: Command&#xa;- gameModel: GameModel" style="text;strokeColor=none;fillColor=none;align=left;verticalAlign=top;spacingLeft=4;spacingRight=4;overflow=hidden;rotatable=0;points=[[0,0.5],[1,0.5]];portConstraint=eastwest;" parent="Ob0sJD3edlCVlVhSrMj9-32" vertex="1">
          <mxGeometry y="26" width="440" height="74" as="geometry" />
        </mxCell>
        <mxCell id="Ob0sJD3edlCVlVhSrMj9-34" value="" style="line;strokeWidth=1;fillColor=none;align=left;verticalAlign=middle;spacingTop=-1;spacingLeft=3;spacingRight=3;rotatable=0;labelPosition=right;points=[];portConstraint=eastwest;" parent="Ob0sJD3edlCVlVhSrMj9-32" vertex="1">
          <mxGeometry y="100" width="440" height="8" as="geometry" />
        </mxCell>
        <mxCell id="Ob0sJD3edlCVlVhSrMj9-35" value="+ GameCharacter(x : int, y : int, direction : Command, gameModel : GameModel)&#xa;+ getX() : int&#xa;+ getY() : int&#xa;+ getDirection() : Command&#xa;+ move(direction : Command): boolean&#xa;- attackableCharacter(): boolean&#xa;+ attack(): GameTile&#xa;+ special(): ArrayList&lt;GameTile&gt;&#xa;+ bow(): GameTile&#xa;+ showPosition()" style="text;strokeColor=none;fillColor=none;align=left;verticalAlign=top;spacingLeft=4;spacingRight=4;overflow=hidden;rotatable=0;points=[[0,0.5],[1,0.5]];portConstraint=eastwest;" parent="Ob0sJD3edlCVlVhSrMj9-32" vertex="1">
          <mxGeometry y="108" width="440" height="152" as="geometry" />
        </mxCell>
        <mxCell id="Ob0sJD3edlCVlVhSrMj9-36" value="GameEnemy" style="swimlane;fontStyle=1;align=center;verticalAlign=top;childLayout=stackLayout;horizontal=1;startSize=26;horizontalStack=0;resizeParent=1;resizeParentMax=0;resizeLast=0;collapsible=1;marginBottom=0;" parent="WIyWlLk6GJQsqaUBKTNV-1" vertex="1">
          <mxGeometry x="240" y="-1322" width="430" height="240" as="geometry" />
        </mxCell>
        <mxCell id="Ob0sJD3edlCVlVhSrMj9-37" value="- x: int&#xa;- y: int&#xa;- direction: Command&#xa;- gameModel: GameModel" style="text;strokeColor=none;fillColor=none;align=left;verticalAlign=top;spacingLeft=4;spacingRight=4;overflow=hidden;rotatable=0;points=[[0,0.5],[1,0.5]];portConstraint=eastwest;" parent="Ob0sJD3edlCVlVhSrMj9-36" vertex="1">
          <mxGeometry y="26" width="430" height="64" as="geometry" />
        </mxCell>
        <mxCell id="Ob0sJD3edlCVlVhSrMj9-38" value="" style="line;strokeWidth=1;fillColor=none;align=left;verticalAlign=middle;spacingTop=-1;spacingLeft=3;spacingRight=3;rotatable=0;labelPosition=right;points=[];portConstraint=eastwest;" parent="Ob0sJD3edlCVlVhSrMj9-36" vertex="1">
          <mxGeometry y="90" width="430" height="8" as="geometry" />
        </mxCell>
        <mxCell id="Ob0sJD3edlCVlVhSrMj9-39" value="+ GameEnemy(x : int, y : int, direction : Command, gameModel : GameModel)&#xa;+ getX() : int&#xa;+ getY() : int&#xa;+ getDirection() : Command&#xa;- chooseDirection(): Command&#xa;+ move(direction : Command): boolean&#xa;- attackableCharacter(): boolean&#xa;+ attack()&#xa;+ turn(gameView : GameView)" style="text;strokeColor=none;fillColor=none;align=left;verticalAlign=top;spacingLeft=4;spacingRight=4;overflow=hidden;rotatable=0;points=[[0,0.5],[1,0.5]];portConstraint=eastwest;" parent="Ob0sJD3edlCVlVhSrMj9-36" vertex="1">
          <mxGeometry y="98" width="430" height="142" as="geometry" />
        </mxCell>
        <mxCell id="Ob0sJD3edlCVlVhSrMj9-40" value="GameTile" style="swimlane;fontStyle=1;align=center;verticalAlign=top;childLayout=stackLayout;horizontal=1;startSize=26;horizontalStack=0;resizeParent=1;resizeParentMax=0;resizeLast=0;collapsible=1;marginBottom=0;" parent="WIyWlLk6GJQsqaUBKTNV-1" vertex="1">
          <mxGeometry x="-600" y="-1247" width="280" height="240" as="geometry" />
        </mxCell>
        <mxCell id="Ob0sJD3edlCVlVhSrMj9-41" value="+ x: int&#xa;+ y: int&#xa;+ occupied: boolean&#xa;+ occupiedCharacter: boolean&#xa;+ occupiedEnemy: boolean&#xa;- occupierCharacter: GameCharacter&#xa;- occupierEnemy: GameEnemy" style="text;strokeColor=none;fillColor=none;align=left;verticalAlign=top;spacingLeft=4;spacingRight=4;overflow=hidden;rotatable=0;points=[[0,0.5],[1,0.5]];portConstraint=eastwest;" parent="Ob0sJD3edlCVlVhSrMj9-40" vertex="1">
          <mxGeometry y="26" width="280" height="114" as="geometry" />
        </mxCell>
        <mxCell id="Ob0sJD3edlCVlVhSrMj9-42" value="" style="line;strokeWidth=1;fillColor=none;align=left;verticalAlign=middle;spacingTop=-1;spacingLeft=3;spacingRight=3;rotatable=0;labelPosition=right;points=[];portConstraint=eastwest;" parent="Ob0sJD3edlCVlVhSrMj9-40" vertex="1">
          <mxGeometry y="140" width="280" height="8" as="geometry" />
        </mxCell>
        <mxCell id="Ob0sJD3edlCVlVhSrMj9-43" value="+ GameTile(x : int, y : int, occupied : boolean)&#xa;+ occupieCharacter(occupier :GameCharacter)&#xa;+ occupieEnemy(occupier : GameEnemy)&#xa;+Â getOccupierCharacter() : GameCharacter&#xa;+Â getOccupierEnemy() : GameEnemy&#xa;+ free()" style="text;strokeColor=none;fillColor=none;align=left;verticalAlign=top;spacingLeft=4;spacingRight=4;overflow=hidden;rotatable=0;points=[[0,0.5],[1,0.5]];portConstraint=eastwest;" parent="Ob0sJD3edlCVlVhSrMj9-40" vertex="1">
          <mxGeometry y="148" width="280" height="92" as="geometry" />
        </mxCell>
        <mxCell id="Ob0sJD3edlCVlVhSrMj9-44" value="GraficTile" style="swimlane;fontStyle=1;align=center;verticalAlign=top;childLayout=stackLayout;horizontal=1;startSize=26;horizontalStack=0;resizeParent=1;resizeParentMax=0;resizeLast=0;collapsible=1;marginBottom=0;" parent="WIyWlLk6GJQsqaUBKTNV-1" vertex="1">
          <mxGeometry x="-1630" y="-273" width="260" height="160" as="geometry" />
        </mxCell>
        <mxCell id="Ob0sJD3edlCVlVhSrMj9-45" value="+ occupier: ImageView&#xa;+ occupierPath: String&#xa;- gameView: GameView" style="text;strokeColor=none;fillColor=none;align=left;verticalAlign=top;spacingLeft=4;spacingRight=4;overflow=hidden;rotatable=0;points=[[0,0.5],[1,0.5]];portConstraint=eastwest;" parent="Ob0sJD3edlCVlVhSrMj9-44" vertex="1">
          <mxGeometry y="26" width="260" height="54" as="geometry" />
        </mxCell>
        <mxCell id="Ob0sJD3edlCVlVhSrMj9-46" value="" style="line;strokeWidth=1;fillColor=none;align=left;verticalAlign=middle;spacingTop=-1;spacingLeft=3;spacingRight=3;rotatable=0;labelPosition=right;points=[];portConstraint=eastwest;" parent="Ob0sJD3edlCVlVhSrMj9-44" vertex="1">
          <mxGeometry y="80" width="260" height="8" as="geometry" />
        </mxCell>
        <mxCell id="Ob0sJD3edlCVlVhSrMj9-47" value="+ GraficTile(x : int, y : int, occupied : boolean)&#xa;+ free()&#xa;+ occupieCharacter(direction : Command)&#xa;+ occupieEnemy(direction : Command)" style="text;strokeColor=none;fillColor=none;align=left;verticalAlign=top;spacingLeft=4;spacingRight=4;overflow=hidden;rotatable=0;points=[[0,0.5],[1,0.5]];portConstraint=eastwest;" parent="Ob0sJD3edlCVlVhSrMj9-44" vertex="1">
          <mxGeometry y="88" width="260" height="72" as="geometry" />
        </mxCell>
        <mxCell id="Ob0sJD3edlCVlVhSrMj9-48" value="GameUtils" style="swimlane;fontStyle=1;align=center;verticalAlign=top;childLayout=stackLayout;horizontal=1;startSize=26;horizontalStack=0;resizeParent=1;resizeParentMax=0;resizeLast=0;collapsible=1;marginBottom=0;" parent="WIyWlLk6GJQsqaUBKTNV-1" vertex="1">
          <mxGeometry x="720" y="-827" width="220" height="140" as="geometry" />
        </mxCell>
        <mxCell id="Ob0sJD3edlCVlVhSrMj9-49" value="+ TILE_SIZE : int&#xa;+ WIDTH : int&#xa;+ HEIGHT : int" style="text;strokeColor=none;fillColor=none;align=left;verticalAlign=top;spacingLeft=4;spacingRight=4;overflow=hidden;rotatable=0;points=[[0,0.5],[1,0.5]];portConstraint=eastwest;" parent="Ob0sJD3edlCVlVhSrMj9-48" vertex="1">
          <mxGeometry y="26" width="220" height="54" as="geometry" />
        </mxCell>
        <mxCell id="Ob0sJD3edlCVlVhSrMj9-50" value="" style="line;strokeWidth=1;fillColor=none;align=left;verticalAlign=middle;spacingTop=-1;spacingLeft=3;spacingRight=3;rotatable=0;labelPosition=right;points=[];portConstraint=eastwest;" parent="Ob0sJD3edlCVlVhSrMj9-48" vertex="1">
          <mxGeometry y="80" width="220" height="8" as="geometry" />
        </mxCell>
        <mxCell id="Ob0sJD3edlCVlVhSrMj9-51" value="+Â checkPosition(x : int, y : int) : boolean&#xa;+ randomDirection() : Command" style="text;strokeColor=none;fillColor=none;align=left;verticalAlign=top;spacingLeft=4;spacingRight=4;overflow=hidden;rotatable=0;points=[[0,0.5],[1,0.5]];portConstraint=eastwest;" parent="Ob0sJD3edlCVlVhSrMj9-48" vertex="1">
          <mxGeometry y="88" width="220" height="52" as="geometry" />
        </mxCell>
        <mxCell id="Ob0sJD3edlCVlVhSrMj9-56" value="LocalCacheOperations" style="swimlane;fontStyle=1;align=center;verticalAlign=top;childLayout=stackLayout;horizontal=1;startSize=26;horizontalStack=0;resizeParent=1;resizeParentMax=0;resizeLast=0;collapsible=1;marginBottom=0;" parent="WIyWlLk6GJQsqaUBKTNV-1" vertex="1">
          <mxGeometry x="-439" y="689" width="370" height="100" as="geometry" />
        </mxCell>
        <mxCell id="Ob0sJD3edlCVlVhSrMj9-57" value="- cacheFilePath: String" style="text;strokeColor=none;fillColor=none;align=left;verticalAlign=top;spacingLeft=4;spacingRight=4;overflow=hidden;rotatable=0;points=[[0,0.5],[1,0.5]];portConstraint=eastwest;" parent="Ob0sJD3edlCVlVhSrMj9-56" vertex="1">
          <mxGeometry y="26" width="370" height="26" as="geometry" />
        </mxCell>
        <mxCell id="Ob0sJD3edlCVlVhSrMj9-58" value="" style="line;strokeWidth=1;fillColor=none;align=left;verticalAlign=middle;spacingTop=-1;spacingLeft=3;spacingRight=3;rotatable=0;labelPosition=right;points=[];portConstraint=eastwest;" parent="Ob0sJD3edlCVlVhSrMj9-56" vertex="1">
          <mxGeometry y="52" width="370" height="8" as="geometry" />
        </mxCell>
        <mxCell id="Ob0sJD3edlCVlVhSrMj9-59" value="+ saveCache(gameModel : GameModel, turnHandler : TurnHandler)&#xa;+ restoreCache(root : Zelda)&#xa;&#xa;" style="text;strokeColor=none;fillColor=none;align=left;verticalAlign=top;spacingLeft=4;spacingRight=4;overflow=hidden;rotatable=0;points=[[0,0.5],[1,0.5]];portConstraint=eastwest;" parent="Ob0sJD3edlCVlVhSrMj9-56" vertex="1">
          <mxGeometry y="60" width="370" height="40" as="geometry" />
        </mxCell>
        <mxCell id="Ob0sJD3edlCVlVhSrMj9-60" value="Record" style="swimlane;fontStyle=1;align=center;verticalAlign=top;childLayout=stackLayout;horizontal=1;startSize=26;horizontalStack=0;resizeParent=1;resizeParentMax=0;resizeLast=0;collapsible=1;marginBottom=0;" parent="WIyWlLk6GJQsqaUBKTNV-1" vertex="1">
          <mxGeometry x="505" y="1010" width="280" height="130" as="geometry" />
        </mxCell>
        <mxCell id="Ob0sJD3edlCVlVhSrMj9-61" value="- user: SimpleStringProperty&#xa;- points:Â SimpleIntegerProperty" style="text;strokeColor=none;fillColor=none;align=left;verticalAlign=top;spacingLeft=4;spacingRight=4;overflow=hidden;rotatable=0;points=[[0,0.5],[1,0.5]];portConstraint=eastwest;" parent="Ob0sJD3edlCVlVhSrMj9-60" vertex="1">
          <mxGeometry y="26" width="280" height="44" as="geometry" />
        </mxCell>
        <mxCell id="Ob0sJD3edlCVlVhSrMj9-62" value="" style="line;strokeWidth=1;fillColor=none;align=left;verticalAlign=middle;spacingTop=-1;spacingLeft=3;spacingRight=3;rotatable=0;labelPosition=right;points=[];portConstraint=eastwest;" parent="Ob0sJD3edlCVlVhSrMj9-60" vertex="1">
          <mxGeometry y="70" width="280" height="8" as="geometry" />
        </mxCell>
        <mxCell id="Ob0sJD3edlCVlVhSrMj9-63" value="+ Record(currentUser : String, currentPoints : int)&#xa;+Â getUser() : String&#xa;+Â getPoints() : int" style="text;strokeColor=none;fillColor=none;align=left;verticalAlign=top;spacingLeft=4;spacingRight=4;overflow=hidden;rotatable=0;points=[[0,0.5],[1,0.5]];portConstraint=eastwest;" parent="Ob0sJD3edlCVlVhSrMj9-60" vertex="1">
          <mxGeometry y="78" width="280" height="52" as="geometry" />
        </mxCell>
        <mxCell id="MlQ-HpUHcutHztB91lEC-4" value="" style="endArrow=none;html=1;exitX=1;exitY=0.5;exitDx=0;exitDy=0;entryX=-0.001;entryY=0.146;entryDx=0;entryDy=0;entryPerimeter=0;" parent="WIyWlLk6GJQsqaUBKTNV-1" source="Ob0sJD3edlCVlVhSrMj9-9" target="Ob0sJD3edlCVlVhSrMj9-7" edge="1">
          <mxGeometry width="50" height="50" relative="1" as="geometry">
            <mxPoint x="-560" y="-510" as="sourcePoint" />
            <mxPoint x="-260" y="-506" as="targetPoint" />
          </mxGeometry>
        </mxCell>
        <mxCell id="MlQ-HpUHcutHztB91lEC-5" value="" style="endArrow=diamondThin;endFill=1;endSize=24;html=1;entryX=0.5;entryY=0;entryDx=0;entryDy=0;exitX=0.501;exitY=1.003;exitDx=0;exitDy=0;exitPerimeter=0;" parent="WIyWlLk6GJQsqaUBKTNV-1" source="Ob0sJD3edlCVlVhSrMj9-35" target="Ob0sJD3edlCVlVhSrMj9-4" edge="1">
          <mxGeometry width="160" relative="1" as="geometry">
            <mxPoint x="-660" y="-890" as="sourcePoint" />
            <mxPoint x="-500" y="-890" as="targetPoint" />
          </mxGeometry>
        </mxCell>
        <mxCell id="MlQ-HpUHcutHztB91lEC-8" value="" style="endArrow=diamondThin;endFill=1;endSize=24;html=1;exitX=1;exitY=0.5;exitDx=0;exitDy=0;entryX=0;entryY=0.5;entryDx=0;entryDy=0;" parent="WIyWlLk6GJQsqaUBKTNV-1" source="Ob0sJD3edlCVlVhSrMj9-45" target="Ob0sJD3edlCVlVhSrMj9-11" edge="1">
          <mxGeometry width="160" relative="1" as="geometry">
            <mxPoint x="-970" y="-19" as="sourcePoint" />
            <mxPoint x="-1160" y="-49" as="targetPoint" />
          </mxGeometry>
        </mxCell>
        <mxCell id="MlQ-HpUHcutHztB91lEC-11" value="Use" style="endArrow=open;endSize=12;dashed=1;html=1;entryX=0;entryY=0.5;entryDx=0;entryDy=0;exitX=1;exitY=0.5;exitDx=0;exitDy=0;" parent="WIyWlLk6GJQsqaUBKTNV-1" source="Ob0sJD3edlCVlVhSrMj9-27" target="Ob0sJD3edlCVlVhSrMj9-61" edge="1">
          <mxGeometry width="160" relative="1" as="geometry">
            <mxPoint x="220" y="870" as="sourcePoint" />
            <mxPoint x="300" y="870" as="targetPoint" />
          </mxGeometry>
        </mxCell>
        <mxCell id="MlQ-HpUHcutHztB91lEC-12" value="Use" style="endArrow=open;endSize=12;dashed=1;html=1;exitX=0;exitY=0.5;exitDx=0;exitDy=0;entryX=1;entryY=0.5;entryDx=0;entryDy=0;" parent="WIyWlLk6GJQsqaUBKTNV-1" source="Ob0sJD3edlCVlVhSrMj9-13" target="Ob0sJD3edlCVlVhSrMj9-61" edge="1">
          <mxGeometry width="160" relative="1" as="geometry">
            <mxPoint x="-140" y="280" as="sourcePoint" />
            <mxPoint x="20" y="280" as="targetPoint" />
          </mxGeometry>
        </mxCell>
        <mxCell id="MlQ-HpUHcutHztB91lEC-27" value="Use" style="endArrow=open;endSize=12;dashed=1;html=1;entryX=1;entryY=0.5;entryDx=0;entryDy=0;exitX=0;exitY=0.5;exitDx=0;exitDy=0;" parent="WIyWlLk6GJQsqaUBKTNV-1" source="Ob0sJD3edlCVlVhSrMj9-57" target="gWqPooSvMqsiTcMxserx-5" edge="1">
          <mxGeometry width="160" relative="1" as="geometry">
            <mxPoint x="-469" y="728" as="sourcePoint" />
            <mxPoint x="-796" y="690" as="targetPoint" />
          </mxGeometry>
        </mxCell>
        <mxCell id="MlQ-HpUHcutHztB91lEC-28" value="" style="endArrow=diamondThin;endFill=1;endSize=24;html=1;entryX=0.5;entryY=0;entryDx=0;entryDy=0;exitX=0.498;exitY=0.998;exitDx=0;exitDy=0;exitPerimeter=0;" parent="WIyWlLk6GJQsqaUBKTNV-1" source="gWqPooSvMqsiTcMxserx-15" target="gWqPooSvMqsiTcMxserx-4" edge="1">
          <mxGeometry width="160" relative="1" as="geometry">
            <mxPoint x="-709.4199999999998" y="556.9219999999998" as="sourcePoint" />
            <mxPoint x="-649" y="693" as="targetPoint" />
          </mxGeometry>
        </mxCell>
        <mxCell id="MlQ-HpUHcutHztB91lEC-29" value="" style="endArrow=diamondThin;endFill=1;endSize=24;html=1;exitX=0.5;exitY=0;exitDx=0;exitDy=0;entryX=0.499;entryY=1.003;entryDx=0;entryDy=0;entryPerimeter=0;" parent="WIyWlLk6GJQsqaUBKTNV-1" source="gWqPooSvMqsiTcMxserx-8" target="gWqPooSvMqsiTcMxserx-7" edge="1">
          <mxGeometry width="160" relative="1" as="geometry">
            <mxPoint x="-649" y="923" as="sourcePoint" />
            <mxPoint x="-649" y="813" as="targetPoint" />
          </mxGeometry>
        </mxCell>
        <mxCell id="gWqPooSvMqsiTcMxserx-4" value="CacheData" style="swimlane;fontStyle=1;align=center;verticalAlign=top;childLayout=stackLayout;horizontal=1;startSize=26;horizontalStack=0;resizeParent=1;resizeParentMax=0;resizeLast=0;collapsible=1;marginBottom=0;" parent="WIyWlLk6GJQsqaUBKTNV-1" vertex="1">
          <mxGeometry x="-908" y="685" width="380" height="94" as="geometry" />
        </mxCell>
        <mxCell id="gWqPooSvMqsiTcMxserx-5" value="+ gameCacheData: GameCacheData&#xa;+ elements: ArrayList&lt;ElementCacheData&gt;" style="text;strokeColor=none;fillColor=none;align=left;verticalAlign=top;spacingLeft=4;spacingRight=4;overflow=hidden;rotatable=0;points=[[0,0.5],[1,0.5]];portConstraint=eastwest;" parent="gWqPooSvMqsiTcMxserx-4" vertex="1">
          <mxGeometry y="26" width="380" height="34" as="geometry" />
        </mxCell>
        <mxCell id="gWqPooSvMqsiTcMxserx-6" value="" style="line;strokeWidth=1;fillColor=none;align=left;verticalAlign=middle;spacingTop=-1;spacingLeft=3;spacingRight=3;rotatable=0;labelPosition=right;points=[];portConstraint=eastwest;" parent="gWqPooSvMqsiTcMxserx-4" vertex="1">
          <mxGeometry y="60" width="380" height="8" as="geometry" />
        </mxCell>
        <mxCell id="gWqPooSvMqsiTcMxserx-7" value="+ CacheData(gameModel : GameModel, turnHandler : TurnHandler)" style="text;strokeColor=none;fillColor=none;align=left;verticalAlign=top;spacingLeft=4;spacingRight=4;overflow=hidden;rotatable=0;points=[[0,0.5],[1,0.5]];portConstraint=eastwest;" parent="gWqPooSvMqsiTcMxserx-4" vertex="1">
          <mxGeometry y="68" width="380" height="26" as="geometry" />
        </mxCell>
        <mxCell id="gWqPooSvMqsiTcMxserx-8" value="ElementCacheData" style="swimlane;fontStyle=1;align=center;verticalAlign=top;childLayout=stackLayout;horizontal=1;startSize=26;horizontalStack=0;resizeParent=1;resizeParentMax=0;resizeLast=0;collapsible=1;marginBottom=0;" parent="WIyWlLk6GJQsqaUBKTNV-1" vertex="1">
          <mxGeometry x="-929" y="860" width="420" height="124" as="geometry" />
        </mxCell>
        <mxCell id="gWqPooSvMqsiTcMxserx-9" value="+ enemy: boolean&#xa;+ x: int&#xa;+ y: int&#xa;+ direction: Command" style="text;strokeColor=none;fillColor=none;align=left;verticalAlign=top;spacingLeft=4;spacingRight=4;overflow=hidden;rotatable=0;points=[[0,0.5],[1,0.5]];portConstraint=eastwest;" parent="gWqPooSvMqsiTcMxserx-8" vertex="1">
          <mxGeometry y="26" width="420" height="64" as="geometry" />
        </mxCell>
        <mxCell id="gWqPooSvMqsiTcMxserx-10" value="" style="line;strokeWidth=1;fillColor=none;align=left;verticalAlign=middle;spacingTop=-1;spacingLeft=3;spacingRight=3;rotatable=0;labelPosition=right;points=[];portConstraint=eastwest;" parent="gWqPooSvMqsiTcMxserx-8" vertex="1">
          <mxGeometry y="90" width="420" height="8" as="geometry" />
        </mxCell>
        <mxCell id="gWqPooSvMqsiTcMxserx-11" value="+ ElementCacheData(enemy : boolean, x : int, y : int, direction : Command)" style="text;strokeColor=none;fillColor=none;align=left;verticalAlign=top;spacingLeft=4;spacingRight=4;overflow=hidden;rotatable=0;points=[[0,0.5],[1,0.5]];portConstraint=eastwest;" parent="gWqPooSvMqsiTcMxserx-8" vertex="1">
          <mxGeometry y="98" width="420" height="26" as="geometry" />
        </mxCell>
        <mxCell id="gWqPooSvMqsiTcMxserx-12" value="GameCacheData" style="swimlane;fontStyle=1;align=center;verticalAlign=top;childLayout=stackLayout;horizontal=1;startSize=26;horizontalStack=0;resizeParent=1;resizeParentMax=0;resizeLast=0;collapsible=1;marginBottom=0;" parent="WIyWlLk6GJQsqaUBKTNV-1" vertex="1">
          <mxGeometry x="-928" y="253" width="420" height="380" as="geometry" />
        </mxCell>
        <mxCell id="gWqPooSvMqsiTcMxserx-13" value="+ user: String&#xa;+ lives: int&#xa;+ waveMagnitude: int&#xa;+ points: int&#xa;+ coolDown: int&#xa;+ readySpecial: boolean&#xa;+ arrows: int&#xa;+ characterTurn: boolean&#xa;+ enemyIndex: int&#xa;+ inputCounter: int&#xa;+ enemyTurnCounter: int" style="text;strokeColor=none;fillColor=none;align=left;verticalAlign=top;spacingLeft=4;spacingRight=4;overflow=hidden;rotatable=0;points=[[0,0.5],[1,0.5]];portConstraint=eastwest;" parent="gWqPooSvMqsiTcMxserx-12" vertex="1">
          <mxGeometry y="26" width="420" height="164" as="geometry" />
        </mxCell>
        <mxCell id="gWqPooSvMqsiTcMxserx-14" value="" style="line;strokeWidth=1;fillColor=none;align=left;verticalAlign=middle;spacingTop=-1;spacingLeft=3;spacingRight=3;rotatable=0;labelPosition=right;points=[];portConstraint=eastwest;" parent="gWqPooSvMqsiTcMxserx-12" vertex="1">
          <mxGeometry y="190" width="420" height="8" as="geometry" />
        </mxCell>
        <mxCell id="gWqPooSvMqsiTcMxserx-15" value="+ GameCacheData(gameModel : GameModel, turnHandler : TurnHandler)&#xa;+ getUser(): String&#xa;+ getLives(): int&#xa;+ getWaveMagnitude(): int&#xa;+ getPoints(): int&#xa;+ getCoolDown(): int&#xa;+ getReadySpecial(): boolean&#xa;+ getArrows(): int&#xa;+ getCharacterTurn(): boolean&#xa;+ getEnemyIndex(): int&#xa;+ getInputCounter(): int&#xa;+ getEnemyTurnCounter(): int&#xa;" style="text;strokeColor=none;fillColor=none;align=left;verticalAlign=top;spacingLeft=4;spacingRight=4;overflow=hidden;rotatable=0;points=[[0,0.5],[1,0.5]];portConstraint=eastwest;" parent="gWqPooSvMqsiTcMxserx-12" vertex="1">
          <mxGeometry y="198" width="420" height="182" as="geometry" />
        </mxCell>
        <mxCell id="gWqPooSvMqsiTcMxserx-16" value="" style="endArrow=diamondThin;endFill=1;endSize=24;html=1;entryX=0.75;entryY=0;entryDx=0;entryDy=0;exitX=0.471;exitY=1.003;exitDx=0;exitDy=0;exitPerimeter=0;" parent="WIyWlLk6GJQsqaUBKTNV-1" source="Ob0sJD3edlCVlVhSrMj9-39" target="Ob0sJD3edlCVlVhSrMj9-4" edge="1">
          <mxGeometry width="160" relative="1" as="geometry">
            <mxPoint x="200" y="-730" as="sourcePoint" />
            <mxPoint x="360" y="-730" as="targetPoint" />
            <Array as="points">
              <mxPoint x="443" y="-830" />
              <mxPoint x="88" y="-830" />
            </Array>
          </mxGeometry>
        </mxCell>
        <mxCell id="dGsachjm3ciiK5epuPdC-17" value="Use" style="endArrow=open;endSize=12;dashed=1;html=1;exitX=1;exitY=0.5;exitDx=0;exitDy=0;entryX=0;entryY=0.5;entryDx=0;entryDy=0;" parent="WIyWlLk6GJQsqaUBKTNV-1" source="bV0bHOmEOioke7Z_R2ua-3" target="bV0bHOmEOioke7Z_R2ua-26" edge="1">
          <mxGeometry width="160" relative="1" as="geometry">
            <mxPoint x="1150" y="163.99999999999955" as="sourcePoint" />
            <mxPoint x="1215.0000000000005" y="161.84000000000023" as="targetPoint" />
            <Array as="points">
              <mxPoint x="1120" y="613" />
              <mxPoint x="1120" y="256" />
            </Array>
          </mxGeometry>
        </mxCell>
        <mxCell id="dGsachjm3ciiK5epuPdC-19" value="Use" style="endArrow=open;endSize=12;dashed=1;html=1;exitX=1;exitY=0.5;exitDx=0;exitDy=0;entryX=0;entryY=0.5;entryDx=0;entryDy=0;" parent="WIyWlLk6GJQsqaUBKTNV-1" source="bV0bHOmEOioke7Z_R2ua-5" target="bV0bHOmEOioke7Z_R2ua-8" edge="1">
          <mxGeometry width="160" relative="1" as="geometry">
            <mxPoint x="1580" y="379.99999999999955" as="sourcePoint" />
            <mxPoint x="1650" y="388" as="targetPoint" />
            <Array as="points">
              <mxPoint x="1360" y="769" />
              <mxPoint x="1360" y="479" />
            </Array>
          </mxGeometry>
        </mxCell>
        <mxCell id="dGsachjm3ciiK5epuPdC-24" value="Use" style="endArrow=open;endSize=12;dashed=1;html=1;exitX=0.751;exitY=1.002;exitDx=0;exitDy=0;exitPerimeter=0;entryX=0.5;entryY=0;entryDx=0;entryDy=0;" parent="WIyWlLk6GJQsqaUBKTNV-1" source="bV0bHOmEOioke7Z_R2ua-5" target="Ob0sJD3edlCVlVhSrMj9-12" edge="1">
          <mxGeometry width="160" relative="1" as="geometry">
            <mxPoint x="750" y="900" as="sourcePoint" />
            <mxPoint x="1300" y="650" as="targetPoint" />
            <Array as="points">
              <mxPoint x="749" y="900" />
              <mxPoint x="1115" y="900" />
            </Array>
          </mxGeometry>
        </mxCell>
        <mxCell id="dGsachjm3ciiK5epuPdC-25" value="Use" style="endArrow=open;endSize=12;dashed=1;html=1;exitX=0.246;exitY=0.997;exitDx=0;exitDy=0;exitPerimeter=0;entryX=0.5;entryY=0;entryDx=0;entryDy=0;" parent="WIyWlLk6GJQsqaUBKTNV-1" source="bV0bHOmEOioke7Z_R2ua-5" target="Ob0sJD3edlCVlVhSrMj9-24" edge="1">
          <mxGeometry width="160" relative="1" as="geometry">
            <mxPoint x="530" y="830" as="sourcePoint" />
            <mxPoint x="190" y="740" as="targetPoint" />
            <Array as="points">
              <mxPoint x="540" y="850" />
              <mxPoint x="202" y="850" />
            </Array>
          </mxGeometry>
        </mxCell>
        <mxCell id="dGsachjm3ciiK5epuPdC-28" value="Use" style="endArrow=open;endSize=12;dashed=1;html=1;exitX=0.5;exitY=0;exitDx=0;exitDy=0;entryX=0.5;entryY=1;entryDx=0;entryDy=0;entryPerimeter=0;" parent="WIyWlLk6GJQsqaUBKTNV-1" source="bV0bHOmEOioke7Z_R2ua-2" target="Ob0sJD3edlCVlVhSrMj9-19" edge="1">
          <mxGeometry width="160" relative="1" as="geometry">
            <mxPoint x="220" y="430" as="sourcePoint" />
            <mxPoint x="380" y="430" as="targetPoint" />
            <Array as="points">
              <mxPoint x="645" y="400" />
              <mxPoint x="660" y="360" />
            </Array>
          </mxGeometry>
        </mxCell>
        <mxCell id="dGsachjm3ciiK5epuPdC-29" value="Use" style="endArrow=open;endSize=12;dashed=1;html=1;exitX=0;exitY=0.5;exitDx=0;exitDy=0;entryX=1;entryY=0.5;entryDx=0;entryDy=0;" parent="WIyWlLk6GJQsqaUBKTNV-1" source="bV0bHOmEOioke7Z_R2ua-5" target="Ob0sJD3edlCVlVhSrMj9-59" edge="1">
          <mxGeometry width="160" relative="1" as="geometry">
            <mxPoint x="-30" y="470" as="sourcePoint" />
            <mxPoint x="130" y="470" as="targetPoint" />
          </mxGeometry>
        </mxCell>
        <mxCell id="dGsachjm3ciiK5epuPdC-34" value="Use" style="endArrow=open;endSize=12;dashed=1;html=1;exitX=0.495;exitY=1.001;exitDx=0;exitDy=0;exitPerimeter=0;entryX=0.003;entryY=0.047;entryDx=0;entryDy=0;entryPerimeter=0;" parent="WIyWlLk6GJQsqaUBKTNV-1" source="Ob0sJD3edlCVlVhSrMj9-59" target="Ob0sJD3edlCVlVhSrMj9-7" edge="1">
          <mxGeometry width="160" relative="1" as="geometry">
            <mxPoint x="-370" y="970" as="sourcePoint" />
            <mxPoint x="-280" y="-540" as="targetPoint" />
            <Array as="points">
              <mxPoint x="-256" y="1130" />
              <mxPoint x="-1890" y="1130" />
              <mxPoint x="-1880" y="-800" />
              <mxPoint x="-590" y="-800" />
              <mxPoint x="-590" y="-560" />
            </Array>
          </mxGeometry>
        </mxCell>
        <mxCell id="dGsachjm3ciiK5epuPdC-35" value="Use" style="endArrow=open;endSize=12;dashed=1;html=1;exitX=0;exitY=0.5;exitDx=0;exitDy=0;entryX=0.815;entryY=1.003;entryDx=0;entryDy=0;entryPerimeter=0;" parent="WIyWlLk6GJQsqaUBKTNV-1" source="Ob0sJD3edlCVlVhSrMj9-17" target="Ob0sJD3edlCVlVhSrMj9-7" edge="1">
          <mxGeometry width="160" relative="1" as="geometry">
            <mxPoint x="-30" y="190" as="sourcePoint" />
            <mxPoint x="116" y="-80" as="targetPoint" />
            <Array as="points">
              <mxPoint x="300" y="160" />
              <mxPoint x="300" y="-30" />
              <mxPoint x="117" y="-30" />
            </Array>
          </mxGeometry>
        </mxCell>
        <mxCell id="dGsachjm3ciiK5epuPdC-36" value="Use" style="endArrow=open;endSize=12;dashed=1;html=1;entryX=1;entryY=0.5;entryDx=0;entryDy=0;exitX=-0.002;exitY=0.804;exitDx=0;exitDy=0;exitPerimeter=0;" parent="WIyWlLk6GJQsqaUBKTNV-1" source="Ob0sJD3edlCVlVhSrMj9-17" target="Ob0sJD3edlCVlVhSrMj9-11" edge="1">
          <mxGeometry width="160" relative="1" as="geometry">
            <mxPoint x="-640" y="70" as="sourcePoint" />
            <mxPoint x="-480" y="70" as="targetPoint" />
            <Array as="points">
              <mxPoint x="160" y="195" />
              <mxPoint x="160" y="10" />
              <mxPoint x="-520" y="10" />
              <mxPoint x="-520" y="-220" />
            </Array>
          </mxGeometry>
        </mxCell>
        <mxCell id="dGsachjm3ciiK5epuPdC-37" value="Use" style="endArrow=open;endSize=12;dashed=1;html=1;exitX=0;exitY=0.5;exitDx=0;exitDy=0;entryX=0.6;entryY=0.998;entryDx=0;entryDy=0;entryPerimeter=0;" parent="WIyWlLk6GJQsqaUBKTNV-1" source="bV0bHOmEOioke7Z_R2ua-3" target="Ob0sJD3edlCVlVhSrMj9-11" edge="1">
          <mxGeometry width="160" relative="1" as="geometry">
            <mxPoint x="-580" y="60" as="sourcePoint" />
            <mxPoint x="-930" y="-80" as="targetPoint" />
            <Array as="points">
              <mxPoint x="-40" y="613" />
              <mxPoint x="-40" y="120" />
              <mxPoint x="-912" y="120" />
            </Array>
          </mxGeometry>
        </mxCell>
        <mxCell id="dGsachjm3ciiK5epuPdC-38" value="Use" style="endArrow=open;endSize=12;dashed=1;html=1;entryX=-0.003;entryY=0.773;entryDx=0;entryDy=0;entryPerimeter=0;" parent="WIyWlLk6GJQsqaUBKTNV-1" target="Ob0sJD3edlCVlVhSrMj9-5" edge="1">
          <mxGeometry width="160" relative="1" as="geometry">
            <mxPoint x="438" y="800" as="sourcePoint" />
            <mxPoint x="-20" y="1140" as="targetPoint" />
            <Array as="points">
              <mxPoint x="-60" y="800" />
              <mxPoint x="-60" y="1250" />
              <mxPoint x="-2000" y="1250" />
              <mxPoint x="-2000" y="-880" />
              <mxPoint x="-520" y="-880" />
              <mxPoint x="-520" y="-630" />
            </Array>
          </mxGeometry>
        </mxCell>
        <mxCell id="dGsachjm3ciiK5epuPdC-39" value="Use" style="endArrow=open;endSize=12;dashed=1;html=1;entryX=0;entryY=0.5;entryDx=0;entryDy=0;exitX=1;exitY=0.59;exitDx=0;exitDy=0;exitPerimeter=0;" parent="WIyWlLk6GJQsqaUBKTNV-1" source="Ob0sJD3edlCVlVhSrMj9-7" target="bV0bHOmEOioke7Z_R2ua-24" edge="1">
          <mxGeometry width="160" relative="1" as="geometry">
            <mxPoint x="220" y="-280" as="sourcePoint" />
            <mxPoint x="850" y="-350" as="targetPoint" />
            <Array as="points">
              <mxPoint x="1120" y="-280" />
              <mxPoint x="1120" y="180" />
            </Array>
          </mxGeometry>
        </mxCell>
        <mxCell id="dGsachjm3ciiK5epuPdC-40" value="" style="endArrow=diamondThin;endFill=1;endSize=24;html=1;entryX=0.25;entryY=0;entryDx=0;entryDy=0;exitX=0.499;exitY=0.979;exitDx=0;exitDy=0;exitPerimeter=0;" parent="WIyWlLk6GJQsqaUBKTNV-1" source="Ob0sJD3edlCVlVhSrMj9-43" target="Ob0sJD3edlCVlVhSrMj9-4" edge="1">
          <mxGeometry width="160" relative="1" as="geometry">
            <mxPoint x="-450" y="-880" as="sourcePoint" />
            <mxPoint x="-290" y="-880" as="targetPoint" />
            <Array as="points">
              <mxPoint x="-460" y="-830" />
              <mxPoint x="-137" y="-830" />
            </Array>
          </mxGeometry>
        </mxCell>
        <mxCell id="IagDWFgubuV--EoFCN2V-0" value="Java.net&lt;br&gt;java.util.logging&lt;br&gt;javafx.application&lt;br&gt;javafx.collections&lt;br&gt;javafx.event&lt;br&gt;javafx.scene&lt;br&gt;javafx.scene.control&lt;br&gt;javafx.stage&lt;br&gt;javafx.scene.input&lt;br&gt;javafx.scene.layout" style="shape=folder;fontStyle=1;tabWidth=80;tabHeight=30;tabPosition=left;html=1;boundedLbl=1;" parent="WIyWlLk6GJQsqaUBKTNV-1" vertex="1">
          <mxGeometry x="80" y="277" width="210" height="184" as="geometry" />
        </mxCell>
        <mxCell id="L1kakF1YF15P_5vZSAZn-0" value="&amp;lt;&amp;lt;import&amp;gt;&amp;gt;" style="endArrow=open;startArrow=none;endFill=0;startFill=0;endSize=8;html=1;verticalAlign=bottom;dashed=1;labelBackgroundColor=none;entryX=0.5;entryY=1;entryDx=0;entryDy=0;entryPerimeter=0;" parent="WIyWlLk6GJQsqaUBKTNV-1" target="IagDWFgubuV--EoFCN2V-0" edge="1">
          <mxGeometry width="160" relative="1" as="geometry">
            <mxPoint x="437" y="527" as="sourcePoint" />
            <mxPoint x="-80" y="440" as="targetPoint" />
            <Array as="points">
              <mxPoint x="185" y="527" />
            </Array>
          </mxGeometry>
        </mxCell>
        <mxCell id="L1kakF1YF15P_5vZSAZn-1" value="&amp;nbsp;java.util.logging&lt;br&gt;javafx.application" style="shape=folder;fontStyle=1;tabWidth=80;tabHeight=30;tabPosition=left;html=1;boundedLbl=1;" parent="WIyWlLk6GJQsqaUBKTNV-1" vertex="1">
          <mxGeometry x="585" y="-120" width="150" height="80" as="geometry" />
        </mxCell>
        <mxCell id="L1kakF1YF15P_5vZSAZn-2" value="&amp;lt;&amp;lt;import&amp;gt;&amp;gt;" style="endArrow=open;startArrow=none;endFill=0;startFill=0;endSize=8;html=1;verticalAlign=bottom;dashed=1;labelBackgroundColor=none;exitX=0.5;exitY=0;exitDx=0;exitDy=0;entryX=0.5;entryY=1;entryDx=0;entryDy=0;entryPerimeter=0;" parent="WIyWlLk6GJQsqaUBKTNV-1" source="Ob0sJD3edlCVlVhSrMj9-16" target="L1kakF1YF15P_5vZSAZn-1" edge="1">
          <mxGeometry width="160" relative="1" as="geometry">
            <mxPoint x="400" y="-170" as="sourcePoint" />
            <mxPoint x="560" y="-170" as="targetPoint" />
          </mxGeometry>
        </mxCell>
        <mxCell id="L1kakF1YF15P_5vZSAZn-3" value="" style="endArrow=diamondThin;endFill=0;endSize=24;html=1;exitX=0;exitY=0.5;exitDx=0;exitDy=0;" parent="WIyWlLk6GJQsqaUBKTNV-1" source="L1kakF1YF15P_5vZSAZn-19" edge="1">
          <mxGeometry width="160" relative="1" as="geometry">
            <mxPoint x="2092" y="769.9999999999995" as="sourcePoint" />
            <mxPoint x="854" y="802" as="targetPoint" />
            <Array as="points">
              <mxPoint x="1460" y="770" />
              <mxPoint x="1440" y="802" />
            </Array>
          </mxGeometry>
        </mxCell>
        <mxCell id="L1kakF1YF15P_5vZSAZn-4" value="Â«interfaceÂ»&lt;br&gt;&lt;b&gt;Serializable&lt;/b&gt;" style="html=1;" parent="WIyWlLk6GJQsqaUBKTNV-1" vertex="1">
          <mxGeometry x="2250" y="960" width="110" height="50" as="geometry" />
        </mxCell>
        <mxCell id="L1kakF1YF15P_5vZSAZn-5" value="" style="endArrow=block;startArrow=none;endFill=0;startFill=0;endSize=8;html=1;verticalAlign=bottom;dashed=1;labelBackgroundColor=none;entryX=0.5;entryY=0;entryDx=0;entryDy=0;exitX=0.5;exitY=0.997;exitDx=0;exitDy=0;exitPerimeter=0;" parent="WIyWlLk6GJQsqaUBKTNV-1" source="L1kakF1YF15P_5vZSAZn-21" target="L1kakF1YF15P_5vZSAZn-4" edge="1">
          <mxGeometry width="160" relative="1" as="geometry">
            <mxPoint x="2813.529411764706" y="860" as="sourcePoint" />
            <mxPoint x="1780" y="890" as="targetPoint" />
          </mxGeometry>
        </mxCell>
        <mxCell id="L1kakF1YF15P_5vZSAZn-8" value="SettingsXML" style="swimlane;fontStyle=1;align=center;verticalAlign=top;childLayout=stackLayout;horizontal=1;startSize=26;horizontalStack=0;resizeParent=1;resizeParentMax=0;resizeLast=0;collapsible=1;marginBottom=0;" parent="WIyWlLk6GJQsqaUBKTNV-1" vertex="1">
          <mxGeometry x="1883" y="450" width="840" height="142" as="geometry" />
        </mxCell>
        <mxCell id="L1kakF1YF15P_5vZSAZn-9" value="+keyAssociation: KeyAssociation&#xa;+serverLogAddress: ServerAddress&#xa;+dbAddress: ServerAddress&#xa;+dbUsername: String&#xa;+dbPassword: String" style="text;strokeColor=none;fillColor=none;align=left;verticalAlign=top;spacingLeft=4;spacingRight=4;overflow=hidden;rotatable=0;points=[[0,0.5],[1,0.5]];portConstraint=eastwest;" parent="L1kakF1YF15P_5vZSAZn-8" vertex="1">
          <mxGeometry y="26" width="840" height="82" as="geometry" />
        </mxCell>
        <mxCell id="L1kakF1YF15P_5vZSAZn-10" value="" style="line;strokeWidth=1;fillColor=none;align=left;verticalAlign=middle;spacingTop=-1;spacingLeft=3;spacingRight=3;rotatable=0;labelPosition=right;points=[];portConstraint=eastwest;" parent="L1kakF1YF15P_5vZSAZn-8" vertex="1">
          <mxGeometry y="108" width="840" height="8" as="geometry" />
        </mxCell>
        <mxCell id="L1kakF1YF15P_5vZSAZn-11" value="SettingsXML(keyAssociation : KeyAssociation, serverLogAddress : ServerAddress, dbAddress : ServerAddress, dbUsername : String, dbPassword : String)" style="text;strokeColor=none;fillColor=none;align=left;verticalAlign=top;spacingLeft=4;spacingRight=4;overflow=hidden;rotatable=0;points=[[0,0.5],[1,0.5]];portConstraint=eastwest;" parent="L1kakF1YF15P_5vZSAZn-8" vertex="1">
          <mxGeometry y="116" width="840" height="26" as="geometry" />
        </mxCell>
        <mxCell id="L1kakF1YF15P_5vZSAZn-18" value="KeyAssociation" style="swimlane;fontStyle=1;align=center;verticalAlign=top;childLayout=stackLayout;horizontal=1;startSize=26;horizontalStack=0;resizeParent=1;resizeParentMax=0;resizeLast=0;collapsible=1;marginBottom=0;" parent="WIyWlLk6GJQsqaUBKTNV-1" vertex="1">
          <mxGeometry x="1860" y="689" width="890" height="190" as="geometry" />
        </mxCell>
        <mxCell id="L1kakF1YF15P_5vZSAZn-19" value="+rightKey : KeyCode&#xa;+leftKey : KeyCode&#xa;+downKey : KeyCode&#xa;+upKey : KeyCode&#xa;+swordKey : KeyCode&#xa;+specialKey : KeyCode&#xa;+bowKey : KeyCode" style="text;strokeColor=none;fillColor=none;align=left;verticalAlign=top;spacingLeft=4;spacingRight=4;overflow=hidden;rotatable=0;points=[[0,0.5],[1,0.5]];portConstraint=eastwest;" parent="L1kakF1YF15P_5vZSAZn-18" vertex="1">
          <mxGeometry y="26" width="890" height="114" as="geometry" />
        </mxCell>
        <mxCell id="L1kakF1YF15P_5vZSAZn-20" value="" style="line;strokeWidth=1;fillColor=none;align=left;verticalAlign=middle;spacingTop=-1;spacingLeft=3;spacingRight=3;rotatable=0;labelPosition=right;points=[];portConstraint=eastwest;" parent="L1kakF1YF15P_5vZSAZn-18" vertex="1">
          <mxGeometry y="140" width="890" height="8" as="geometry" />
        </mxCell>
        <mxCell id="L1kakF1YF15P_5vZSAZn-21" value="+KeyAssociation(rightKey : KeyCode, leftKey : KeyCode, upKey : KeyCode, downKey : KeyCode, swordKey : KeyCode, specialKey : KeyCode, bowKey : KeyCode)&#xa;+equals(obj : Object)" style="text;strokeColor=none;fillColor=none;align=left;verticalAlign=top;spacingLeft=4;spacingRight=4;overflow=hidden;rotatable=0;points=[[0,0.5],[1,0.5]];portConstraint=eastwest;" parent="L1kakF1YF15P_5vZSAZn-18" vertex="1">
          <mxGeometry y="148" width="890" height="42" as="geometry" />
        </mxCell>
        <mxCell id="L1kakF1YF15P_5vZSAZn-22" value="" style="endArrow=diamondThin;endFill=0;endSize=24;html=1;exitX=0.5;exitY=0;exitDx=0;exitDy=0;entryX=0.502;entryY=1.002;entryDx=0;entryDy=0;entryPerimeter=0;" parent="WIyWlLk6GJQsqaUBKTNV-1" source="L1kakF1YF15P_5vZSAZn-18" target="L1kakF1YF15P_5vZSAZn-11" edge="1">
          <mxGeometry width="160" relative="1" as="geometry">
            <mxPoint x="2011" y="830" as="sourcePoint" />
            <mxPoint x="2010" y="660" as="targetPoint" />
          </mxGeometry>
        </mxCell>
        <mxCell id="L1kakF1YF15P_5vZSAZn-23" value="" style="endArrow=block;startArrow=none;endFill=0;startFill=0;endSize=8;html=1;verticalAlign=bottom;dashed=1;labelBackgroundColor=none;exitX=1;exitY=0.5;exitDx=0;exitDy=0;entryX=1;entryY=0.5;entryDx=0;entryDy=0;" parent="WIyWlLk6GJQsqaUBKTNV-1" source="L1kakF1YF15P_5vZSAZn-9" target="L1kakF1YF15P_5vZSAZn-4" edge="1">
          <mxGeometry width="160" relative="1" as="geometry">
            <mxPoint x="2770" y="380" as="sourcePoint" />
            <mxPoint x="2770.45" y="432.54399999999987" as="targetPoint" />
            <Array as="points">
              <mxPoint x="2760" y="517" />
              <mxPoint x="2760" y="984" />
            </Array>
          </mxGeometry>
        </mxCell>
        <mxCell id="L1kakF1YF15P_5vZSAZn-24" value="ServerAddress" style="swimlane;fontStyle=1;align=center;verticalAlign=top;childLayout=stackLayout;horizontal=1;startSize=26;horizontalStack=0;resizeParent=1;resizeParentMax=0;resizeLast=0;collapsible=1;marginBottom=0;" parent="WIyWlLk6GJQsqaUBKTNV-1" vertex="1">
          <mxGeometry x="2040" y="-40" width="260" height="92" as="geometry" />
        </mxCell>
        <mxCell id="L1kakF1YF15P_5vZSAZn-25" value="+ipAddress : String&#xa;+port: intÂ " style="text;strokeColor=none;fillColor=none;align=left;verticalAlign=top;spacingLeft=4;spacingRight=4;overflow=hidden;rotatable=0;points=[[0,0.5],[1,0.5]];portConstraint=eastwest;" parent="L1kakF1YF15P_5vZSAZn-24" vertex="1">
          <mxGeometry y="26" width="260" height="34" as="geometry" />
        </mxCell>
        <mxCell id="L1kakF1YF15P_5vZSAZn-26" value="" style="line;strokeWidth=1;fillColor=none;align=left;verticalAlign=middle;spacingTop=-1;spacingLeft=3;spacingRight=3;rotatable=0;labelPosition=right;points=[];portConstraint=eastwest;" parent="L1kakF1YF15P_5vZSAZn-24" vertex="1">
          <mxGeometry y="60" width="260" height="8" as="geometry" />
        </mxCell>
        <mxCell id="L1kakF1YF15P_5vZSAZn-27" value="+ServerAddress(ipAddress : String, port : int)" style="text;strokeColor=none;fillColor=none;align=left;verticalAlign=top;spacingLeft=4;spacingRight=4;overflow=hidden;rotatable=0;points=[[0,0.5],[1,0.5]];portConstraint=eastwest;" parent="L1kakF1YF15P_5vZSAZn-24" vertex="1">
          <mxGeometry y="68" width="260" height="24" as="geometry" />
        </mxCell>
        <mxCell id="L1kakF1YF15P_5vZSAZn-31" value="Use" style="endArrow=open;endSize=12;dashed=1;html=1;exitX=0.25;exitY=0;exitDx=0;exitDy=0;entryX=0.495;entryY=1.002;entryDx=0;entryDy=0;entryPerimeter=0;" parent="WIyWlLk6GJQsqaUBKTNV-1" source="L1kakF1YF15P_5vZSAZn-8" target="L1kakF1YF15P_5vZSAZn-27" edge="1">
          <mxGeometry width="160" relative="1" as="geometry">
            <mxPoint x="2150" y="310" as="sourcePoint" />
            <mxPoint x="2160" y="70" as="targetPoint" />
            <Array as="points">
              <mxPoint x="2093" y="290" />
              <mxPoint x="2169" y="210" />
            </Array>
          </mxGeometry>
        </mxCell>
        <mxCell id="L1kakF1YF15P_5vZSAZn-35" value="" style="endArrow=block;startArrow=none;endFill=0;startFill=0;endSize=8;html=1;verticalAlign=bottom;dashed=1;labelBackgroundColor=none;exitX=0.5;exitY=0;exitDx=0;exitDy=0;entryX=0.25;entryY=1;entryDx=0;entryDy=0;" parent="WIyWlLk6GJQsqaUBKTNV-1" source="L1kakF1YF15P_5vZSAZn-24" target="bV0bHOmEOioke7Z_R2ua-39" edge="1">
          <mxGeometry width="160" relative="1" as="geometry">
            <mxPoint x="2500" y="-10" as="sourcePoint" />
            <mxPoint x="2500.45" y="42.54399999999987" as="targetPoint" />
            <Array as="points">
              <mxPoint x="2170" y="-60" />
              <mxPoint x="2287" y="-60" />
            </Array>
          </mxGeometry>
        </mxCell>
        <mxCell id="L1kakF1YF15P_5vZSAZn-36" value="Use" style="endArrow=open;endSize=12;dashed=1;html=1;exitX=0.496;exitY=0.998;exitDx=0;exitDy=0;exitPerimeter=0;entryX=0.5;entryY=0;entryDx=0;entryDy=0;" parent="WIyWlLk6GJQsqaUBKTNV-1" source="bV0bHOmEOioke7Z_R2ua-5" target="Ob0sJD3edlCVlVhSrMj9-60" edge="1">
          <mxGeometry width="160" relative="1" as="geometry">
            <mxPoint x="580" y="880" as="sourcePoint" />
            <mxPoint x="740" y="880" as="targetPoint" />
          </mxGeometry>
        </mxCell>
        <mxCell id="L1kakF1YF15P_5vZSAZn-37" value="Use" style="endArrow=open;endSize=12;dashed=1;html=1;exitX=0.248;exitY=1;exitDx=0;exitDy=0;exitPerimeter=0;entryX=-0.002;entryY=0.652;entryDx=0;entryDy=0;entryPerimeter=0;" parent="WIyWlLk6GJQsqaUBKTNV-1" source="Ob0sJD3edlCVlVhSrMj9-59" target="Ob0sJD3edlCVlVhSrMj9-17" edge="1">
          <mxGeometry width="160" relative="1" as="geometry">
            <mxPoint x="-350" y="830" as="sourcePoint" />
            <mxPoint x="320" y="177" as="targetPoint" />
            <Array as="points">
              <mxPoint x="-347" y="1080" />
              <mxPoint x="-1840" y="1080" />
              <mxPoint x="-1840" y="-770" />
              <mxPoint x="-640" y="-770" />
              <mxPoint x="-640" y="-320" />
              <mxPoint x="-400" y="-320" />
              <mxPoint x="-400" y="-50" />
              <mxPoint x="40" y="-50" />
              <mxPoint x="40" y="-10" />
              <mxPoint x="240" y="-10" />
              <mxPoint x="240" y="177" />
            </Array>
          </mxGeometry>
        </mxCell>
        <mxCell id="L1kakF1YF15P_5vZSAZn-38" value="Use" style="endArrow=open;endSize=12;dashed=1;html=1;exitX=-0.003;exitY=0.933;exitDx=0;exitDy=0;exitPerimeter=0;entryX=-0.001;entryY=0.614;entryDx=0;entryDy=0;entryPerimeter=0;" parent="WIyWlLk6GJQsqaUBKTNV-1" source="Ob0sJD3edlCVlVhSrMj9-5" target="gWqPooSvMqsiTcMxserx-5" edge="1">
          <mxGeometry width="160" relative="1" as="geometry">
            <mxPoint x="-270" y="-590" as="sourcePoint" />
            <mxPoint x="-930" y="747.2" as="targetPoint" />
            <Array as="points">
              <mxPoint x="-560" y="-602" />
              <mxPoint x="-560" y="-830" />
              <mxPoint x="-1950" y="-830" />
              <mxPoint x="-1950" y="732" />
            </Array>
          </mxGeometry>
        </mxCell>
        <mxCell id="L1kakF1YF15P_5vZSAZn-39" value="Use" style="endArrow=open;endSize=12;dashed=1;html=1;exitX=0.75;exitY=0;exitDx=0;exitDy=0;entryX=0.5;entryY=0;entryDx=0;entryDy=0;" parent="WIyWlLk6GJQsqaUBKTNV-1" source="Ob0sJD3edlCVlVhSrMj9-8" target="Ob0sJD3edlCVlVhSrMj9-40" edge="1">
          <mxGeometry width="160" relative="1" as="geometry">
            <mxPoint x="-1030" y="-1060" as="sourcePoint" />
            <mxPoint x="-870" y="-1060" as="targetPoint" />
            <Array as="points">
              <mxPoint x="-840" y="-1320" />
              <mxPoint x="-460" y="-1320" />
            </Array>
          </mxGeometry>
        </mxCell>
        <mxCell id="L1kakF1YF15P_5vZSAZn-40" value="Use" style="endArrow=open;endSize=12;dashed=1;html=1;exitX=0.5;exitY=0;exitDx=0;exitDy=0;entryX=0.5;entryY=0;entryDx=0;entryDy=0;" parent="WIyWlLk6GJQsqaUBKTNV-1" source="Ob0sJD3edlCVlVhSrMj9-8" target="Ob0sJD3edlCVlVhSrMj9-32" edge="1">
          <mxGeometry width="160" relative="1" as="geometry">
            <mxPoint x="-1060" y="-1000" as="sourcePoint" />
            <mxPoint x="-900" y="-1000" as="targetPoint" />
            <Array as="points">
              <mxPoint x="-960" y="-1360" />
              <mxPoint x="-25" y="-1360" />
            </Array>
          </mxGeometry>
        </mxCell>
        <mxCell id="L1kakF1YF15P_5vZSAZn-41" value="Use" style="endArrow=open;endSize=12;dashed=1;html=1;exitX=0.25;exitY=0;exitDx=0;exitDy=0;entryX=0.5;entryY=0;entryDx=0;entryDy=0;" parent="WIyWlLk6GJQsqaUBKTNV-1" source="Ob0sJD3edlCVlVhSrMj9-8" target="Ob0sJD3edlCVlVhSrMj9-36" edge="1">
          <mxGeometry width="160" relative="1" as="geometry">
            <mxPoint x="-1290" y="-1160" as="sourcePoint" />
            <mxPoint x="-1130" y="-1160" as="targetPoint" />
            <Array as="points">
              <mxPoint x="-1080" y="-1400" />
              <mxPoint x="455" y="-1400" />
            </Array>
          </mxGeometry>
        </mxCell>
        <mxCell id="L1kakF1YF15P_5vZSAZn-42" value="Use" style="endArrow=open;endSize=12;dashed=1;html=1;exitX=0;exitY=0;exitDx=0;exitDy=0;entryX=0.501;entryY=1.003;entryDx=0;entryDy=0;entryPerimeter=0;" parent="WIyWlLk6GJQsqaUBKTNV-1" source="Ob0sJD3edlCVlVhSrMj9-8" target="Ob0sJD3edlCVlVhSrMj9-21" edge="1">
          <mxGeometry width="160" relative="1" as="geometry">
            <mxPoint x="-1150" y="-630" as="sourcePoint" />
            <mxPoint x="-1210" y="-1110" as="targetPoint" />
            <Array as="points">
              <mxPoint x="-1200" y="-920" />
              <mxPoint x="-1240" y="-1000" />
            </Array>
          </mxGeometry>
        </mxCell>
        <mxCell id="L1kakF1YF15P_5vZSAZn-43" value="Use" style="endArrow=open;endSize=12;dashed=1;html=1;exitX=0.75;exitY=0;exitDx=0;exitDy=0;entryX=0.75;entryY=0;entryDx=0;entryDy=0;" parent="WIyWlLk6GJQsqaUBKTNV-1" source="Ob0sJD3edlCVlVhSrMj9-32" target="Ob0sJD3edlCVlVhSrMj9-20" edge="1">
          <mxGeometry width="160" relative="1" as="geometry">
            <mxPoint x="-790" y="-1540" as="sourcePoint" />
            <mxPoint x="-1202.698451450893" y="-1330" as="targetPoint" />
            <Array as="points">
              <mxPoint x="85" y="-1480" />
              <mxPoint x="-1204" y="-1480" />
            </Array>
          </mxGeometry>
        </mxCell>
        <mxCell id="L1kakF1YF15P_5vZSAZn-44" value="Use" style="endArrow=open;endSize=12;dashed=1;html=1;exitX=0.75;exitY=0;exitDx=0;exitDy=0;entryX=0.5;entryY=0;entryDx=0;entryDy=0;" parent="WIyWlLk6GJQsqaUBKTNV-1" source="Ob0sJD3edlCVlVhSrMj9-36" target="Ob0sJD3edlCVlVhSrMj9-20" edge="1">
          <mxGeometry width="160" relative="1" as="geometry">
            <mxPoint x="-80" y="-1560" as="sourcePoint" />
            <mxPoint x="80" y="-1560" as="targetPoint" />
            <Array as="points">
              <mxPoint x="563" y="-1520" />
              <mxPoint x="-1239" y="-1520" />
            </Array>
          </mxGeometry>
        </mxCell>
        <mxCell id="L1kakF1YF15P_5vZSAZn-45" value="Use" style="endArrow=open;endSize=12;dashed=1;html=1;exitX=0.5;exitY=0;exitDx=0;exitDy=0;entryX=0.001;entryY=1.001;entryDx=0;entryDy=0;entryPerimeter=0;" parent="WIyWlLk6GJQsqaUBKTNV-1" source="Ob0sJD3edlCVlVhSrMj9-44" target="Ob0sJD3edlCVlVhSrMj9-21" edge="1">
          <mxGeometry width="160" relative="1" as="geometry">
            <mxPoint x="-1570" y="-530" as="sourcePoint" />
            <mxPoint x="-1410" y="-530" as="targetPoint" />
            <Array as="points">
              <mxPoint x="-1500" y="-600" />
              <mxPoint x="-1309" y="-600" />
            </Array>
          </mxGeometry>
        </mxCell>
        <mxCell id="L1kakF1YF15P_5vZSAZn-46" value="Use" style="endArrow=open;endSize=12;dashed=1;html=1;entryX=0;entryY=0.5;entryDx=0;entryDy=0;exitX=0;exitY=0.5;exitDx=0;exitDy=0;" parent="WIyWlLk6GJQsqaUBKTNV-1" source="gWqPooSvMqsiTcMxserx-9" target="Ob0sJD3edlCVlVhSrMj9-21" edge="1">
          <mxGeometry width="160" relative="1" as="geometry">
            <mxPoint x="-970" y="960.4575482536765" as="sourcePoint" />
            <mxPoint x="-1590" y="-1190" as="targetPoint" />
            <Array as="points">
              <mxPoint x="-1760" y="913" />
              <mxPoint x="-1760" y="-1194" />
            </Array>
          </mxGeometry>
        </mxCell>
        <mxCell id="L1kakF1YF15P_5vZSAZn-47" value="Use" style="endArrow=open;endSize=12;dashed=1;html=1;exitX=0.752;exitY=1.003;exitDx=0;exitDy=0;exitPerimeter=0;entryX=0.25;entryY=0;entryDx=0;entryDy=0;" parent="WIyWlLk6GJQsqaUBKTNV-1" source="Ob0sJD3edlCVlVhSrMj9-39" target="Ob0sJD3edlCVlVhSrMj9-48" edge="1">
          <mxGeometry width="160" relative="1" as="geometry">
            <mxPoint x="540" y="-1000" as="sourcePoint" />
            <mxPoint x="670" y="-870" as="targetPoint" />
            <Array as="points">
              <mxPoint x="563" y="-930" />
              <mxPoint x="775" y="-930" />
            </Array>
          </mxGeometry>
        </mxCell>
        <mxCell id="L1kakF1YF15P_5vZSAZn-48" value="Use" style="endArrow=open;endSize=12;dashed=1;html=1;exitX=0.751;exitY=1;exitDx=0;exitDy=0;exitPerimeter=0;entryX=0;entryY=0;entryDx=0;entryDy=0;" parent="WIyWlLk6GJQsqaUBKTNV-1" source="Ob0sJD3edlCVlVhSrMj9-35" target="Ob0sJD3edlCVlVhSrMj9-48" edge="1">
          <mxGeometry width="160" relative="1" as="geometry">
            <mxPoint x="150" y="-780" as="sourcePoint" />
            <mxPoint x="220" y="-730" as="targetPoint" />
            <Array as="points">
              <mxPoint x="85" y="-880" />
              <mxPoint x="720" y="-880" />
            </Array>
          </mxGeometry>
        </mxCell>
        <mxCell id="L1kakF1YF15P_5vZSAZn-49" value="Use" style="endArrow=open;endSize=12;dashed=1;html=1;exitX=1;exitY=0.5;exitDx=0;exitDy=0;entryX=0;entryY=0.5;entryDx=0;entryDy=0;" parent="WIyWlLk6GJQsqaUBKTNV-1" source="Ob0sJD3edlCVlVhSrMj9-5" target="Ob0sJD3edlCVlVhSrMj9-49" edge="1">
          <mxGeometry width="160" relative="1" as="geometry">
            <mxPoint x="370" y="-660" as="sourcePoint" />
            <mxPoint x="530" y="-660" as="targetPoint" />
            <Array as="points">
              <mxPoint x="440" y="-677" />
              <mxPoint x="440" y="-774" />
            </Array>
          </mxGeometry>
        </mxCell>
        <mxCell id="L1kakF1YF15P_5vZSAZn-50" value="Use" style="endArrow=open;endSize=12;dashed=1;html=1;exitX=0.749;exitY=1.003;exitDx=0;exitDy=0;exitPerimeter=0;entryX=0;entryY=0.5;entryDx=0;entryDy=0;" parent="WIyWlLk6GJQsqaUBKTNV-1" source="Ob0sJD3edlCVlVhSrMj9-11" target="Ob0sJD3edlCVlVhSrMj9-51" edge="1">
          <mxGeometry x="-0.0107" width="160" relative="1" as="geometry">
            <mxPoint x="-840" y="-50" as="sourcePoint" />
            <mxPoint x="-250" y="-50" as="targetPoint" />
            <Array as="points">
              <mxPoint x="-840" y="40" />
              <mxPoint x="520" y="40" />
              <mxPoint x="520" y="-713" />
            </Array>
            <mxPoint as="offset" />
          </mxGeometry>
        </mxCell>
        <mxCell id="_cpgH5gwfxwIZRVm_JWs-0" value="com.thoughtworks.xstream&lt;br&gt;&lt;span style=&quot;font-size: 12px&quot;&gt;java.io&lt;/span&gt;&lt;br&gt;&lt;span style=&quot;font-size: 12px&quot;&gt;java.net&lt;/span&gt;&lt;br&gt;&lt;span style=&quot;font-size: 12px&quot;&gt;javax.xml&lt;/span&gt;&lt;br&gt;&lt;span style=&quot;font-size: 12px&quot;&gt;javax.xml.parsers&lt;/span&gt;&lt;br&gt;&lt;span style=&quot;font-size: 12px&quot;&gt;javax.xml.transform.dom&lt;/span&gt;&lt;br&gt;&lt;span style=&quot;font-size: 12px&quot;&gt;javax.xml.transform.stream&lt;/span&gt;&lt;br&gt;&lt;span style=&quot;font-size: 12px&quot;&gt;javax.xml.validation&lt;br&gt;org.w3c.dom&lt;br&gt;org.xml.sax&lt;/span&gt;" style="shape=folder;fontStyle=1;tabWidth=80;tabHeight=30;tabPosition=left;html=1;boundedLbl=1;" parent="WIyWlLk6GJQsqaUBKTNV-1" vertex="1">
          <mxGeometry x="1169" y="-430" width="187" height="170" as="geometry" />
        </mxCell>
        <mxCell id="_cpgH5gwfxwIZRVm_JWs-1" value="&amp;lt;&amp;lt;import&amp;gt;&amp;gt;" style="endArrow=open;startArrow=none;endFill=0;startFill=0;endSize=8;html=1;verticalAlign=bottom;dashed=1;labelBackgroundColor=none;exitX=0.25;exitY=0;exitDx=0;exitDy=0;entryX=0.5;entryY=1;entryDx=0;entryDy=0;entryPerimeter=0;" parent="WIyWlLk6GJQsqaUBKTNV-1" source="bV0bHOmEOioke7Z_R2ua-23" target="_cpgH5gwfxwIZRVm_JWs-0" edge="1">
          <mxGeometry width="160" relative="1" as="geometry">
            <mxPoint x="655" y="87" as="sourcePoint" />
            <mxPoint x="655" y="-30.000000000000455" as="targetPoint" />
            <Array as="points">
              <mxPoint x="1338" y="40" />
              <mxPoint x="1263" y="40" />
            </Array>
          </mxGeometry>
        </mxCell>
        <mxCell id="_cpgH5gwfxwIZRVm_JWs-2" value="java.io&lt;br&gt;&lt;span style=&quot;font-size: 12px&quot;&gt;java.net&lt;/span&gt;&lt;br&gt;&lt;span style=&quot;font-size: 12px&quot;&gt;java.sql.Timestamp&lt;/span&gt;&lt;br&gt;&lt;span style=&quot;font-size: 12px&quot;&gt;java.util&lt;/span&gt;" style="shape=folder;fontStyle=1;tabWidth=80;tabHeight=30;tabPosition=left;html=1;boundedLbl=1;" parent="WIyWlLk6GJQsqaUBKTNV-1" vertex="1">
          <mxGeometry x="1480" y="-400" width="150" height="102" as="geometry" />
        </mxCell>
        <mxCell id="_cpgH5gwfxwIZRVm_JWs-3" value="&amp;lt;&amp;lt;import&amp;gt;&amp;gt;" style="endArrow=open;startArrow=none;endFill=0;startFill=0;endSize=8;html=1;verticalAlign=bottom;dashed=1;labelBackgroundColor=none;exitX=0.5;exitY=0;exitDx=0;exitDy=0;entryX=0.5;entryY=1;entryDx=0;entryDy=0;entryPerimeter=0;" parent="WIyWlLk6GJQsqaUBKTNV-1" source="bV0bHOmEOioke7Z_R2ua-34" target="_cpgH5gwfxwIZRVm_JWs-2" edge="1">
          <mxGeometry width="160" relative="1" as="geometry">
            <mxPoint x="1690" y="-290" as="sourcePoint" />
            <mxPoint x="1850" y="-290" as="targetPoint" />
            <Array as="points">
              <mxPoint x="1431" y="-230" />
              <mxPoint x="1555" y="-240" />
            </Array>
          </mxGeometry>
        </mxCell>
        <mxCell id="_cpgH5gwfxwIZRVm_JWs-4" value="java.io&lt;br&gt;&lt;span style=&quot;font-size: 12px&quot;&gt;java.net&lt;/span&gt;&lt;br&gt;&lt;span style=&quot;font-size: 12px&quot;&gt;java.nio.file&lt;/span&gt;&lt;br&gt;&lt;span style=&quot;font-size: 12px&quot;&gt;javax.xml&lt;/span&gt;&lt;br&gt;&lt;span style=&quot;font-size: 12px&quot;&gt;javax.xml.parsers&lt;/span&gt;&lt;br&gt;&lt;span style=&quot;font-size: 12px&quot;&gt;javax.xml.transform.dom&lt;/span&gt;&lt;br&gt;&lt;span style=&quot;font-size: 12px&quot;&gt;javax.xml.transform.stream&lt;/span&gt;&lt;br&gt;&lt;span style=&quot;font-size: 12px&quot;&gt;javax.xml.validation&lt;/span&gt;&lt;br&gt;&lt;span style=&quot;font-size: 12px&quot;&gt;org.w3c.dom&lt;/span&gt;&lt;br&gt;&lt;span style=&quot;font-size: 12px&quot;&gt;org.xml.sax&lt;/span&gt;" style="shape=folder;fontStyle=1;tabWidth=80;tabHeight=30;tabPosition=left;html=1;boundedLbl=1;" parent="WIyWlLk6GJQsqaUBKTNV-1" vertex="1">
          <mxGeometry x="1630" y="-90" width="167" height="180" as="geometry" />
        </mxCell>
        <mxCell id="_cpgH5gwfxwIZRVm_JWs-5" value="&amp;lt;&amp;lt;import&amp;gt;&amp;gt;" style="endArrow=open;startArrow=none;endFill=0;startFill=0;endSize=8;html=1;verticalAlign=bottom;dashed=1;labelBackgroundColor=none;exitX=0.5;exitY=0;exitDx=0;exitDy=0;entryX=0;entryY=0;entryDx=167;entryDy=105;entryPerimeter=0;" parent="WIyWlLk6GJQsqaUBKTNV-1" source="bV0bHOmEOioke7Z_R2ua-27" target="_cpgH5gwfxwIZRVm_JWs-4" edge="1">
          <mxGeometry width="160" relative="1" as="geometry">
            <mxPoint x="1840" y="-260" as="sourcePoint" />
            <mxPoint x="2000" y="-260" as="targetPoint" />
            <Array as="points">
              <mxPoint x="1882" y="15" />
            </Array>
          </mxGeometry>
        </mxCell>
        <mxCell id="_cpgH5gwfxwIZRVm_JWs-6" value="&lt;span style=&quot;font-size: 12px&quot;&gt;java.io&lt;/span&gt;" style="shape=folder;fontStyle=1;tabWidth=80;tabHeight=30;tabPosition=left;html=1;boundedLbl=1;" parent="WIyWlLk6GJQsqaUBKTNV-1" vertex="1">
          <mxGeometry x="1900" y="-90" width="110" height="80" as="geometry" />
        </mxCell>
        <mxCell id="_cpgH5gwfxwIZRVm_JWs-7" value="&amp;lt;&amp;lt;import&amp;gt;&amp;gt;" style="endArrow=open;startArrow=none;endFill=0;startFill=0;endSize=8;html=1;verticalAlign=bottom;dashed=1;labelBackgroundColor=none;exitX=0;exitY=0.5;exitDx=0;exitDy=0;entryX=0.5;entryY=1;entryDx=0;entryDy=0;entryPerimeter=0;" parent="WIyWlLk6GJQsqaUBKTNV-1" source="L1kakF1YF15P_5vZSAZn-27" target="_cpgH5gwfxwIZRVm_JWs-6" edge="1">
          <mxGeometry width="160" relative="1" as="geometry">
            <mxPoint x="1870" y="-210" as="sourcePoint" />
            <mxPoint x="2030" y="-210" as="targetPoint" />
            <Array as="points">
              <mxPoint x="1955" y="40" />
            </Array>
          </mxGeometry>
        </mxCell>
        <mxCell id="_cpgH5gwfxwIZRVm_JWs-8" value="" style="endArrow=block;startArrow=none;endFill=0;startFill=0;endSize=8;html=1;verticalAlign=bottom;dashed=1;labelBackgroundColor=none;exitX=1;exitY=0.5;exitDx=0;exitDy=0;entryX=0;entryY=0.5;entryDx=0;entryDy=0;" parent="WIyWlLk6GJQsqaUBKTNV-1" source="bV0bHOmEOioke7Z_R2ua-35" target="bV0bHOmEOioke7Z_R2ua-39" edge="1">
          <mxGeometry width="160" relative="1" as="geometry">
            <mxPoint x="1840" y="-260" as="sourcePoint" />
            <mxPoint x="1840.4499999999998" y="-207.45600000000013" as="targetPoint" />
          </mxGeometry>
        </mxCell>
        <mxCell id="_cpgH5gwfxwIZRVm_JWs-9" value="" style="endArrow=block;startArrow=none;endFill=0;startFill=0;endSize=8;html=1;verticalAlign=bottom;dashed=1;labelBackgroundColor=none;exitX=0.5;exitY=0;exitDx=0;exitDy=0;entryX=0.5;entryY=1;entryDx=0;entryDy=0;" parent="WIyWlLk6GJQsqaUBKTNV-1" source="L1kakF1YF15P_5vZSAZn-8" target="bV0bHOmEOioke7Z_R2ua-39" edge="1">
          <mxGeometry width="160" relative="1" as="geometry">
            <mxPoint x="2470" y="110" as="sourcePoint" />
            <mxPoint x="2470.45" y="162.54399999999987" as="targetPoint" />
            <Array as="points">
              <mxPoint x="2300" y="200" />
              <mxPoint x="2315" y="130" />
            </Array>
          </mxGeometry>
        </mxCell>
        <mxCell id="_cpgH5gwfxwIZRVm_JWs-10" value="com.thoughtworks.xstream&lt;br&gt;&lt;span style=&quot;font-size: 12px&quot;&gt;java.io&lt;/span&gt;&lt;br&gt;&lt;span style=&quot;font-size: 12px&quot;&gt;java.nio.file&lt;br&gt;javafx.scene.input&lt;/span&gt;&lt;br&gt;&lt;span style=&quot;font-size: 12px&quot;&gt;javax.xml&lt;/span&gt;&lt;br&gt;&lt;span style=&quot;font-size: 12px&quot;&gt;javax.xml.parsers&lt;/span&gt;&lt;br&gt;&lt;span style=&quot;font-size: 12px&quot;&gt;javax.xml.transform.dom&lt;/span&gt;&lt;br&gt;&lt;span style=&quot;font-size: 12px&quot;&gt;javax.xml.transform.stream&lt;/span&gt;&lt;br&gt;&lt;span style=&quot;font-size: 12px&quot;&gt;javax.xml.validation&lt;br&gt;org.w3c.dom&lt;br&gt;org.xml.sax&lt;/span&gt;" style="shape=folder;fontStyle=1;tabWidth=80;tabHeight=30;tabPosition=left;html=1;boundedLbl=1;" parent="WIyWlLk6GJQsqaUBKTNV-1" vertex="1">
          <mxGeometry x="1160" y="292" width="187" height="190" as="geometry" />
        </mxCell>
        <mxCell id="_cpgH5gwfxwIZRVm_JWs-11" value="&amp;lt;&amp;lt;import&amp;gt;&amp;gt;" style="endArrow=open;startArrow=none;endFill=0;startFill=0;endSize=8;html=1;verticalAlign=bottom;dashed=1;labelBackgroundColor=none;exitX=0.5;exitY=0;exitDx=0;exitDy=0;entryX=0;entryY=0;entryDx=187;entryDy=110;entryPerimeter=0;" parent="WIyWlLk6GJQsqaUBKTNV-1" source="bV0bHOmEOioke7Z_R2ua-7" target="_cpgH5gwfxwIZRVm_JWs-10" edge="1">
          <mxGeometry width="160" relative="1" as="geometry">
            <mxPoint x="1550" y="370" as="sourcePoint" />
            <mxPoint x="1710" y="370" as="targetPoint" />
            <Array as="points">
              <mxPoint x="1620" y="402" />
            </Array>
          </mxGeometry>
        </mxCell>
        <mxCell id="_cpgH5gwfxwIZRVm_JWs-12" value="&lt;span style=&quot;font-size: 12px&quot;&gt;java.io&lt;/span&gt;" style="shape=folder;fontStyle=1;tabWidth=80;tabHeight=30;tabPosition=left;html=1;boundedLbl=1;" parent="WIyWlLk6GJQsqaUBKTNV-1" vertex="1">
          <mxGeometry x="2458" y="277" width="110" height="80" as="geometry" />
        </mxCell>
        <mxCell id="_cpgH5gwfxwIZRVm_JWs-13" value="&amp;lt;&amp;lt;import&amp;gt;&amp;gt;" style="endArrow=open;startArrow=none;endFill=0;startFill=0;endSize=8;html=1;verticalAlign=bottom;dashed=1;labelBackgroundColor=none;exitX=0.75;exitY=0;exitDx=0;exitDy=0;entryX=0.5;entryY=1;entryDx=0;entryDy=0;entryPerimeter=0;" parent="WIyWlLk6GJQsqaUBKTNV-1" source="L1kakF1YF15P_5vZSAZn-8" target="_cpgH5gwfxwIZRVm_JWs-12" edge="1">
          <mxGeometry width="160" relative="1" as="geometry">
            <mxPoint x="2720" y="250" as="sourcePoint" />
            <mxPoint x="2880" y="250" as="targetPoint" />
          </mxGeometry>
        </mxCell>
        <mxCell id="_cpgH5gwfxwIZRVm_JWs-14" value="&lt;span style=&quot;font-size: 12px&quot;&gt;java.io&lt;/span&gt;&lt;br&gt;&lt;span style=&quot;font-size: 12px&quot;&gt;javafx.scene.input&lt;/span&gt;" style="shape=folder;fontStyle=1;tabWidth=80;tabHeight=30;tabPosition=left;html=1;boundedLbl=1;" parent="WIyWlLk6GJQsqaUBKTNV-1" vertex="1">
          <mxGeometry x="1985" y="930" width="120" height="80" as="geometry" />
        </mxCell>
        <mxCell id="_cpgH5gwfxwIZRVm_JWs-15" value="&amp;lt;&amp;lt;import&amp;gt;&amp;gt;" style="endArrow=open;startArrow=none;endFill=0;startFill=0;endSize=8;html=1;verticalAlign=bottom;dashed=1;labelBackgroundColor=none;exitX=0.253;exitY=1.001;exitDx=0;exitDy=0;exitPerimeter=0;entryX=0;entryY=0;entryDx=100;entryDy=30;entryPerimeter=0;" parent="WIyWlLk6GJQsqaUBKTNV-1" source="L1kakF1YF15P_5vZSAZn-21" target="_cpgH5gwfxwIZRVm_JWs-14" edge="1">
          <mxGeometry width="160" relative="1" as="geometry">
            <mxPoint x="1860" y="1070" as="sourcePoint" />
            <mxPoint x="2112" y="950" as="targetPoint" />
          </mxGeometry>
        </mxCell>
        <mxCell id="_cpgH5gwfxwIZRVm_JWs-16" value="&lt;span style=&quot;font-size: 12px&quot;&gt;javafx.beans.property&lt;/span&gt;" style="shape=folder;fontStyle=1;tabWidth=80;tabHeight=30;tabPosition=left;html=1;boundedLbl=1;" parent="WIyWlLk6GJQsqaUBKTNV-1" vertex="1">
          <mxGeometry x="529" y="1180" width="150" height="80" as="geometry" />
        </mxCell>
        <mxCell id="_cpgH5gwfxwIZRVm_JWs-17" value="&amp;lt;&amp;lt;import&amp;gt;&amp;gt;" style="endArrow=open;startArrow=none;endFill=0;startFill=0;endSize=8;html=1;verticalAlign=bottom;dashed=1;labelBackgroundColor=none;exitX=0.497;exitY=0.991;exitDx=0;exitDy=0;exitPerimeter=0;entryX=0;entryY=0;entryDx=115;entryDy=30;entryPerimeter=0;" parent="WIyWlLk6GJQsqaUBKTNV-1" source="Ob0sJD3edlCVlVhSrMj9-63" target="_cpgH5gwfxwIZRVm_JWs-16" edge="1">
          <mxGeometry width="160" relative="1" as="geometry">
            <mxPoint x="650" y="1130" as="sourcePoint" />
            <mxPoint x="580" y="1310" as="targetPoint" />
          </mxGeometry>
        </mxCell>
        <mxCell id="_cpgH5gwfxwIZRVm_JWs-18" value="java.sql&lt;br&gt;&lt;span style=&quot;font-size: 12px&quot;&gt;javafx.collections&lt;/span&gt;" style="shape=folder;fontStyle=1;tabWidth=80;tabHeight=30;tabPosition=left;html=1;boundedLbl=1;" parent="WIyWlLk6GJQsqaUBKTNV-1" vertex="1">
          <mxGeometry x="86" y="1170" width="150" height="80" as="geometry" />
        </mxCell>
        <mxCell id="_cpgH5gwfxwIZRVm_JWs-19" value="&amp;lt;&amp;lt;import&amp;gt;&amp;gt;" style="endArrow=open;startArrow=none;endFill=0;startFill=0;endSize=8;html=1;verticalAlign=bottom;dashed=1;labelBackgroundColor=none;exitX=0.496;exitY=0.998;exitDx=0;exitDy=0;exitPerimeter=0;entryX=0;entryY=0;entryDx=115;entryDy=30;entryPerimeter=0;" parent="WIyWlLk6GJQsqaUBKTNV-1" source="Ob0sJD3edlCVlVhSrMj9-27" target="_cpgH5gwfxwIZRVm_JWs-18" edge="1">
          <mxGeometry width="160" relative="1" as="geometry">
            <mxPoint x="210" y="1120" as="sourcePoint" />
            <mxPoint x="500" y="1190" as="targetPoint" />
          </mxGeometry>
        </mxCell>
        <mxCell id="_cpgH5gwfxwIZRVm_JWs-20" value="java.util&lt;br&gt;&lt;span style=&quot;font-size: 12px&quot;&gt;javafx.scene&lt;/span&gt;&lt;br&gt;&lt;span style=&quot;font-size: 12px&quot;&gt;javafx.scene.control&lt;/span&gt;&lt;br&gt;&lt;span style=&quot;font-size: 12px&quot;&gt;javafx.scene.control.cell&lt;/span&gt;&lt;br&gt;&lt;span style=&quot;font-size: 12px&quot;&gt;javafx.scene.image&lt;/span&gt;&lt;br&gt;&lt;span style=&quot;font-size: 12px&quot;&gt;javafx.scene.layout&lt;/span&gt;" style="shape=folder;fontStyle=1;tabWidth=80;tabHeight=30;tabPosition=left;html=1;boundedLbl=1;" parent="WIyWlLk6GJQsqaUBKTNV-1" vertex="1">
          <mxGeometry x="1001" y="1320" width="150" height="120" as="geometry" />
        </mxCell>
        <mxCell id="_cpgH5gwfxwIZRVm_JWs-21" value="&amp;lt;&amp;lt;import&amp;gt;&amp;gt;" style="endArrow=open;startArrow=none;endFill=0;startFill=0;endSize=8;html=1;verticalAlign=bottom;dashed=1;labelBackgroundColor=none;exitX=0.502;exitY=1.005;exitDx=0;exitDy=0;exitPerimeter=0;entryX=0;entryY=0;entryDx=115;entryDy=30;entryPerimeter=0;" parent="WIyWlLk6GJQsqaUBKTNV-1" source="Ob0sJD3edlCVlVhSrMj9-15" target="_cpgH5gwfxwIZRVm_JWs-20" edge="1">
          <mxGeometry width="160" relative="1" as="geometry">
            <mxPoint x="700" y="1300" as="sourcePoint" />
            <mxPoint x="860" y="1300" as="targetPoint" />
          </mxGeometry>
        </mxCell>
        <mxCell id="_cpgH5gwfxwIZRVm_JWs-22" value="java.io&lt;br&gt;&lt;span style=&quot;font-size: 12px&quot;&gt;java.nio.file&lt;/span&gt;" style="shape=folder;fontStyle=1;tabWidth=80;tabHeight=30;tabPosition=left;html=1;boundedLbl=1;" parent="WIyWlLk6GJQsqaUBKTNV-1" vertex="1">
          <mxGeometry x="-329" y="540" width="150" height="80" as="geometry" />
        </mxCell>
        <mxCell id="_cpgH5gwfxwIZRVm_JWs-23" value="&amp;lt;&amp;lt;import&amp;gt;&amp;gt;" style="endArrow=open;startArrow=none;endFill=0;startFill=0;endSize=8;html=1;verticalAlign=bottom;dashed=1;labelBackgroundColor=none;exitX=0.5;exitY=0;exitDx=0;exitDy=0;entryX=0.5;entryY=1;entryDx=0;entryDy=0;entryPerimeter=0;" parent="WIyWlLk6GJQsqaUBKTNV-1" source="Ob0sJD3edlCVlVhSrMj9-56" target="_cpgH5gwfxwIZRVm_JWs-22" edge="1">
          <mxGeometry width="160" relative="1" as="geometry">
            <mxPoint x="-340" y="340" as="sourcePoint" />
            <mxPoint x="-180" y="340" as="targetPoint" />
          </mxGeometry>
        </mxCell>
        <mxCell id="_cpgH5gwfxwIZRVm_JWs-26" value="java.io&lt;br&gt;&lt;span style=&quot;font-size: 12px&quot;&gt;java.util&lt;/span&gt;" style="shape=folder;fontStyle=1;tabWidth=80;tabHeight=30;tabPosition=left;html=1;boundedLbl=1;" parent="WIyWlLk6GJQsqaUBKTNV-1" vertex="1">
          <mxGeometry x="-1169" y="592" width="150" height="80" as="geometry" />
        </mxCell>
        <mxCell id="_cpgH5gwfxwIZRVm_JWs-27" value="&amp;lt;&amp;lt;import&amp;gt;&amp;gt;" style="endArrow=open;startArrow=none;endFill=0;startFill=0;endSize=8;html=1;verticalAlign=bottom;dashed=1;labelBackgroundColor=none;entryX=0.5;entryY=1;entryDx=0;entryDy=0;entryPerimeter=0;exitX=0;exitY=0.25;exitDx=0;exitDy=0;" parent="WIyWlLk6GJQsqaUBKTNV-1" source="gWqPooSvMqsiTcMxserx-4" target="_cpgH5gwfxwIZRVm_JWs-26" edge="1">
          <mxGeometry width="160" relative="1" as="geometry">
            <mxPoint x="-930" y="720" as="sourcePoint" />
            <mxPoint x="-880" y="670" as="targetPoint" />
            <Array as="points">
              <mxPoint x="-1094" y="709" />
            </Array>
          </mxGeometry>
        </mxCell>
        <mxCell id="_cpgH5gwfxwIZRVm_JWs-28" value="java.io" style="shape=folder;fontStyle=1;tabWidth=80;tabHeight=30;tabPosition=left;html=1;boundedLbl=1;" parent="WIyWlLk6GJQsqaUBKTNV-1" vertex="1">
          <mxGeometry x="-793" y="130" width="150" height="80" as="geometry" />
        </mxCell>
        <mxCell id="_cpgH5gwfxwIZRVm_JWs-29" value="&amp;lt;&amp;lt;import&amp;gt;&amp;gt;" style="endArrow=open;startArrow=none;endFill=0;startFill=0;endSize=8;html=1;verticalAlign=bottom;dashed=1;labelBackgroundColor=none;exitX=0.5;exitY=0;exitDx=0;exitDy=0;entryX=0.5;entryY=1;entryDx=0;entryDy=0;entryPerimeter=0;" parent="WIyWlLk6GJQsqaUBKTNV-1" source="gWqPooSvMqsiTcMxserx-12" target="_cpgH5gwfxwIZRVm_JWs-28" edge="1">
          <mxGeometry width="160" relative="1" as="geometry">
            <mxPoint x="-1030" y="180" as="sourcePoint" />
            <mxPoint x="-870" y="180" as="targetPoint" />
          </mxGeometry>
        </mxCell>
        <mxCell id="_cpgH5gwfxwIZRVm_JWs-30" value="java.io" style="shape=folder;fontStyle=1;tabWidth=80;tabHeight=30;tabPosition=left;html=1;boundedLbl=1;" parent="WIyWlLk6GJQsqaUBKTNV-1" vertex="1">
          <mxGeometry x="-1110" y="990" width="150" height="80" as="geometry" />
        </mxCell>
        <mxCell id="_cpgH5gwfxwIZRVm_JWs-31" value="&amp;lt;&amp;lt;import&amp;gt;&amp;gt;" style="endArrow=open;startArrow=none;endFill=0;startFill=0;endSize=8;html=1;verticalAlign=bottom;dashed=1;labelBackgroundColor=none;exitX=0.499;exitY=0.994;exitDx=0;exitDy=0;exitPerimeter=0;entryX=0;entryY=0;entryDx=150;entryDy=55;entryPerimeter=0;" parent="WIyWlLk6GJQsqaUBKTNV-1" source="gWqPooSvMqsiTcMxserx-11" target="_cpgH5gwfxwIZRVm_JWs-30" edge="1">
          <mxGeometry width="160" relative="1" as="geometry">
            <mxPoint x="-720" y="1000" as="sourcePoint" />
            <mxPoint x="-600" y="1040" as="targetPoint" />
            <Array as="points">
              <mxPoint x="-719" y="1045" />
            </Array>
          </mxGeometry>
        </mxCell>
        <mxCell id="_cpgH5gwfxwIZRVm_JWs-32" value="Â«interfaceÂ»&lt;br&gt;&lt;b&gt;Serializable&lt;/b&gt;" style="html=1;" parent="WIyWlLk6GJQsqaUBKTNV-1" vertex="1">
          <mxGeometry x="-1150" y="389" width="110" height="50" as="geometry" />
        </mxCell>
        <mxCell id="_cpgH5gwfxwIZRVm_JWs-34" value="" style="endArrow=block;startArrow=none;endFill=0;startFill=0;endSize=8;html=1;verticalAlign=bottom;dashed=1;labelBackgroundColor=none;exitX=0.25;exitY=0;exitDx=0;exitDy=0;entryX=0.5;entryY=1;entryDx=0;entryDy=0;" parent="WIyWlLk6GJQsqaUBKTNV-1" source="gWqPooSvMqsiTcMxserx-4" target="_cpgH5gwfxwIZRVm_JWs-32" edge="1">
          <mxGeometry width="160" relative="1" as="geometry">
            <mxPoint x="-1280" y="510" as="sourcePoint" />
            <mxPoint x="-1279.5500000000002" y="562.5439999999999" as="targetPoint" />
            <Array as="points">
              <mxPoint x="-813" y="660" />
              <mxPoint x="-960" y="660" />
              <mxPoint x="-960" y="560" />
              <mxPoint x="-1095" y="520" />
            </Array>
          </mxGeometry>
        </mxCell>
        <mxCell id="_cpgH5gwfxwIZRVm_JWs-35" value="Â«interfaceÂ»&lt;br&gt;&lt;b&gt;Serializable&lt;/b&gt;" style="html=1;" parent="WIyWlLk6GJQsqaUBKTNV-1" vertex="1">
          <mxGeometry x="-549" y="1020" width="110" height="50" as="geometry" />
        </mxCell>
        <mxCell id="_cpgH5gwfxwIZRVm_JWs-36" value="" style="endArrow=block;startArrow=none;endFill=0;startFill=0;endSize=8;html=1;verticalAlign=bottom;dashed=1;labelBackgroundColor=none;exitX=0.752;exitY=1.005;exitDx=0;exitDy=0;exitPerimeter=0;entryX=0;entryY=0.5;entryDx=0;entryDy=0;" parent="WIyWlLk6GJQsqaUBKTNV-1" source="gWqPooSvMqsiTcMxserx-11" target="_cpgH5gwfxwIZRVm_JWs-35" edge="1">
          <mxGeometry width="160" relative="1" as="geometry">
            <mxPoint x="-670" y="1200" as="sourcePoint" />
            <mxPoint x="-669.5500000000002" y="1252.5439999999999" as="targetPoint" />
            <Array as="points">
              <mxPoint x="-613" y="1045" />
            </Array>
          </mxGeometry>
        </mxCell>
        <mxCell id="_cpgH5gwfxwIZRVm_JWs-37" value="&lt;span style=&quot;font-size: 12px&quot;&gt;java.util&lt;/span&gt;" style="shape=folder;fontStyle=1;tabWidth=80;tabHeight=30;tabPosition=left;html=1;boundedLbl=1;" parent="WIyWlLk6GJQsqaUBKTNV-1" vertex="1">
          <mxGeometry x="1021" y="-816" width="110" height="80" as="geometry" />
        </mxCell>
        <mxCell id="_cpgH5gwfxwIZRVm_JWs-38" value="&amp;lt;&amp;lt;import&amp;gt;&amp;gt;" style="endArrow=open;startArrow=none;endFill=0;startFill=0;endSize=8;html=1;verticalAlign=bottom;dashed=1;labelBackgroundColor=none;exitX=1;exitY=0.5;exitDx=0;exitDy=0;entryX=0;entryY=0;entryDx=0;entryDy=42.5;entryPerimeter=0;" parent="WIyWlLk6GJQsqaUBKTNV-1" source="Ob0sJD3edlCVlVhSrMj9-49" target="_cpgH5gwfxwIZRVm_JWs-37" edge="1">
          <mxGeometry width="160" relative="1" as="geometry">
            <mxPoint x="950" y="-880" as="sourcePoint" />
            <mxPoint x="1110" y="-880" as="targetPoint" />
          </mxGeometry>
        </mxCell>
        <mxCell id="_cpgH5gwfxwIZRVm_JWs-39" value="&lt;span style=&quot;font-size: 12px&quot;&gt;java.util&lt;/span&gt;" style="shape=folder;fontStyle=1;tabWidth=80;tabHeight=30;tabPosition=left;html=1;boundedLbl=1;" parent="WIyWlLk6GJQsqaUBKTNV-1" vertex="1">
          <mxGeometry x="-230" y="-990" width="110" height="80" as="geometry" />
        </mxCell>
        <mxCell id="_cpgH5gwfxwIZRVm_JWs-40" value="&amp;lt;&amp;lt;import&amp;gt;&amp;gt;" style="endArrow=open;startArrow=none;endFill=0;startFill=0;endSize=8;html=1;verticalAlign=bottom;dashed=1;labelBackgroundColor=none;exitX=0.252;exitY=0.996;exitDx=0;exitDy=0;exitPerimeter=0;entryX=0;entryY=0;entryDx=95;entryDy=30;entryPerimeter=0;" parent="WIyWlLk6GJQsqaUBKTNV-1" source="Ob0sJD3edlCVlVhSrMj9-35" target="_cpgH5gwfxwIZRVm_JWs-39" edge="1">
          <mxGeometry width="160" relative="1" as="geometry">
            <mxPoint x="-100" y="-1000" as="sourcePoint" />
            <mxPoint x="340" y="-960" as="targetPoint" />
          </mxGeometry>
        </mxCell>
        <mxCell id="_cpgH5gwfxwIZRVm_JWs-41" value="&lt;span style=&quot;font-size: 12px&quot;&gt;java.util&lt;/span&gt;" style="shape=folder;fontStyle=1;tabWidth=80;tabHeight=30;tabPosition=left;html=1;boundedLbl=1;" parent="WIyWlLk6GJQsqaUBKTNV-1" vertex="1">
          <mxGeometry x="320" y="-460" width="110" height="80" as="geometry" />
        </mxCell>
        <mxCell id="_cpgH5gwfxwIZRVm_JWs-42" value="&amp;lt;&amp;lt;import&amp;gt;&amp;gt;" style="endArrow=open;startArrow=none;endFill=0;startFill=0;endSize=8;html=1;verticalAlign=bottom;dashed=1;labelBackgroundColor=none;entryX=0;entryY=0;entryDx=0;entryDy=42.5;entryPerimeter=0;exitX=1;exitY=0.321;exitDx=0;exitDy=0;exitPerimeter=0;" parent="WIyWlLk6GJQsqaUBKTNV-1" source="Ob0sJD3edlCVlVhSrMj9-7" target="_cpgH5gwfxwIZRVm_JWs-41" edge="1">
          <mxGeometry width="160" relative="1" as="geometry">
            <mxPoint x="210" y="-417" as="sourcePoint" />
            <mxPoint x="360" y="-380" as="targetPoint" />
          </mxGeometry>
        </mxCell>
        <mxCell id="_cpgH5gwfxwIZRVm_JWs-43" value="java.util&lt;br&gt;&lt;span style=&quot;font-size: 12px&quot;&gt;javafx.animation&lt;/span&gt;&lt;br&gt;&lt;span style=&quot;font-size: 12px&quot;&gt;javafx.scene&lt;/span&gt;&lt;br&gt;&lt;span style=&quot;font-size: 12px&quot;&gt;javafx.scene.control&lt;/span&gt;&lt;br&gt;&lt;span style=&quot;font-size: 12px&quot;&gt;javafx.scene.image&lt;/span&gt;&lt;br&gt;&lt;span style=&quot;font-size: 12px&quot;&gt;javafx.scene.layout&lt;br&gt;&lt;/span&gt;javafx.util" style="shape=folder;fontStyle=1;tabWidth=80;tabHeight=30;tabPosition=left;html=1;boundedLbl=1;" parent="WIyWlLk6GJQsqaUBKTNV-1" vertex="1">
          <mxGeometry x="-1204" y="89" width="170" height="136" as="geometry" />
        </mxCell>
        <mxCell id="_cpgH5gwfxwIZRVm_JWs-44" value="&amp;lt;&amp;lt;import&amp;gt;&amp;gt;" style="endArrow=open;startArrow=none;endFill=0;startFill=0;endSize=8;html=1;verticalAlign=bottom;dashed=1;labelBackgroundColor=none;exitX=0.252;exitY=1.001;exitDx=0;exitDy=0;exitPerimeter=0;entryX=0;entryY=0;entryDx=125;entryDy=30;entryPerimeter=0;" parent="WIyWlLk6GJQsqaUBKTNV-1" source="Ob0sJD3edlCVlVhSrMj9-11" target="_cpgH5gwfxwIZRVm_JWs-43" edge="1">
          <mxGeometry width="160" relative="1" as="geometry">
            <mxPoint x="-1490" y="130" as="sourcePoint" />
            <mxPoint x="-1330" y="130" as="targetPoint" />
          </mxGeometry>
        </mxCell>
        <mxCell id="_cpgH5gwfxwIZRVm_JWs-45" value="javafx.geometry&lt;br&gt;&lt;span style=&quot;font-size: 12px&quot;&gt;javafx.scene.image&lt;/span&gt;&lt;br&gt;&lt;span style=&quot;font-size: 12px&quot;&gt;javafx.scene.layout&lt;/span&gt;" style="shape=folder;fontStyle=1;tabWidth=80;tabHeight=30;tabPosition=left;html=1;boundedLbl=1;" parent="WIyWlLk6GJQsqaUBKTNV-1" vertex="1">
          <mxGeometry x="-1613" y="-71" width="145" height="102" as="geometry" />
        </mxCell>
        <mxCell id="_cpgH5gwfxwIZRVm_JWs-46" value="&amp;lt;&amp;lt;import&amp;gt;&amp;gt;" style="endArrow=open;startArrow=none;endFill=0;startFill=0;endSize=8;html=1;verticalAlign=bottom;dashed=1;labelBackgroundColor=none;exitX=0.5;exitY=1;exitDx=0;exitDy=0;exitPerimeter=0;entryX=0;entryY=0;entryDx=112.5;entryDy=30;entryPerimeter=0;" parent="WIyWlLk6GJQsqaUBKTNV-1" source="Ob0sJD3edlCVlVhSrMj9-47" target="_cpgH5gwfxwIZRVm_JWs-45" edge="1">
          <mxGeometry width="160" relative="1" as="geometry">
            <mxPoint x="-1370" y="-31" as="sourcePoint" />
            <mxPoint x="-1210" y="-31" as="targetPoint" />
          </mxGeometry>
        </mxCell>
        <mxCell id="udMyL9XZ5Hr0-qIC5mtD-3" value="" style="endArrow=block;startArrow=none;endFill=0;startFill=0;endSize=8;html=1;verticalAlign=bottom;dashed=1;labelBackgroundColor=none;exitX=0;exitY=0.5;exitDx=0;exitDy=0;entryX=1;entryY=0.5;entryDx=0;entryDy=0;" edge="1" parent="WIyWlLk6GJQsqaUBKTNV-1" source="gWqPooSvMqsiTcMxserx-13" target="_cpgH5gwfxwIZRVm_JWs-32">
          <mxGeometry width="160" relative="1" as="geometry">
            <mxPoint x="-1270" y="300" as="sourcePoint" />
            <mxPoint x="-1269.5500000000002" y="352.54399999999987" as="targetPoint" />
            <Array as="points">
              <mxPoint x="-960" y="361" />
              <mxPoint x="-960" y="414" />
            </Array>
          </mxGeometry>
        </mxCell>
      </root>
    </mxGraphModel>
  </diagram>
</mxfile>
